<?xml version="1.0" encoding="UTF-8" standalone="no"?>
<!-- Created with Inkscape (http://www.inkscape.org/) -->

<svg
   xmlns:dc="http://purl.org/dc/elements/1.1/"
   xmlns:cc="http://creativecommons.org/ns#"
   xmlns:rdf="http://www.w3.org/1999/02/22-rdf-syntax-ns#"
   xmlns:svg="http://www.w3.org/2000/svg"
   xmlns="http://www.w3.org/2000/svg"
   xmlns:xlink="http://www.w3.org/1999/xlink"
   xmlns:sodipodi="http://sodipodi.sourceforge.net/DTD/sodipodi-0.dtd"
   xmlns:inkscape="http://www.inkscape.org/namespaces/inkscape"
   width="210mm"
   height="297mm"
   viewBox="0 0 210 297"
   version="1.1"
   id="svg8"
   inkscape:version="0.92.3 (2405546, 2018-03-11)"
   sodipodi:docname="energy.svg">
  <defs
     id="defs2" />
  <sodipodi:namedview
     id="base"
     pagecolor="#ffffff"
     bordercolor="#666666"
     borderopacity="1.0"
     inkscape:pageopacity="0.0"
     inkscape:pageshadow="2"
     inkscape:zoom="0.35"
     inkscape:cx="350"
     inkscape:cy="560"
     inkscape:document-units="mm"
     inkscape:current-layer="layer1"
     showgrid="false"
     inkscape:window-width="1920"
     inkscape:window-height="1051"
     inkscape:window-x="-9"
     inkscape:window-y="-9"
     inkscape:window-maximized="1" />
  <metadata
     id="metadata5">
    <rdf:RDF>
      <cc:Work
         rdf:about="">
        <dc:format>image/svg+xml</dc:format>
        <dc:type
           rdf:resource="http://purl.org/dc/dcmitype/StillImage" />
        <dc:title></dc:title>
      </cc:Work>
    </rdf:RDF>
  </metadata>
  <g
     inkscape:label="Ebene 1"
     inkscape:groupmode="layer"
     id="layer1">
    <image
       sodipodi:absref="C:\Users\roman\Desktop\images (1).png"
       y="-39.682289"
       x="-22.584076"
       id="image18"
       xlink:href="file:///C:/Users/roman/Desktop/images%20(1).png"
       style="image-rendering:optimizeSpeed"
       preserveAspectRatio="none"
       height="324.87054"
       width="262.88245" />
    <g
       id="g21">
      <path
         style="fill:#efd9a2;stroke-width:1.29883337"
         d="M 89.579103,236.75385 C 53.106445,227.14378 24.175023,191.21558 16.648617,146.18585 6.1939614,83.636717 39.192165,21.74415 89.895471,8.8015333 140.50969,-4.1183457 190.59263,36.660886 201.06568,99.320109 211.52034,161.86924 178.52213,223.76182 127.81883,236.70443 c -10.78951,2.75415 -27.8907,2.77625 -38.239727,0.0494 z m 26.341347,-44.62953 c 5.30995,-6.56202 4.03535,-8.0069 -7.0633,-8.0069 -8.17857,0 -9.931116,0.39378 -9.931116,2.23142 0,4.20568 5.449446,9.31953 9.931116,9.31953 2.89666,0 5.08332,-1.09717 7.0633,-3.54405 z m 8.53251,-12.17267 c 0.86648,-0.67859 1.38505,-2.45543 1.15237,-3.94853 -0.38999,-2.50257 -1.69878,-2.71472 -16.74818,-2.71472 -15.049403,0 -16.358189,0.21215 -16.748181,2.71472 -0.232679,1.4931 0.285886,3.26994 1.152366,3.94853 2.052204,1.60722 29.139425,1.60722 31.191625,0 z m 2.32632,-15.3944 c 0.74576,-2.02269 1.35592,-4.94652 1.35592,-6.49741 0,-2.68323 -0.93374,-2.81981 -19.27805,-2.81981 -18.344312,0 -19.278047,0.1366 -19.278047,2.81981 0,1.55089 0.610158,4.47472 1.355906,6.49741 l 1.355907,3.67761 h 16.566234 16.56623 z m 2.31049,-19.26978 c 0.78217,-4.67976 2.99041,-12.15179 4.90724,-16.60449 1.91681,-4.45269 5.10225,-11.83181 7.07876,-16.39805 3.30286,-7.63051 3.56187,-9.23683 3.20109,-19.853199 -0.45605,-13.419745 -3.21797,-21.766478 -10.02704,-30.302561 -13.77466,-17.268331 -37.010685,-17.268331 -50.785336,0 -6.809084,8.536083 -9.570998,16.882816 -10.027041,30.302561 -0.360778,10.616369 -0.101777,12.222689 3.201095,19.853199 1.976498,4.56624 5.161938,11.94536 7.078756,16.39805 1.916817,4.4527 4.125069,11.92473 4.907228,16.60449 l 1.422106,8.5087 h 18.810522 18.81052 z"
         id="path35"
         inkscape:connector-curvature="0" />
      <path
         style="fill:#f0c759;stroke-width:1.29883337"
         d="M 91.529269,236.68225 C 53.938096,228.2881 23.206229,189.86179 16.590865,142.9813 c -2.24953,-15.94156 -2.24953,-24.51508 0,-40.45663 6.700751,-47.485619 37.472753,-85.513707 75.897705,-93.7945057 12.89977,-2.7799735 19.83739,-2.7799735 32.73716,0 38.42495,8.2807987 69.19695,46.3088867 75.8977,93.7945057 2.24953,15.94155 2.24953,24.51507 0,40.45663 -8.91113,63.14969 -58.09481,105.20082 -109.594161,93.70095 z m 17.912061,-12.70677 c 0,-0.31367 -2.05883,-0.81293 -4.57518,-1.10948 -2.51636,-0.29656 -4.3255,-0.04 -4.02034,0.57028 0.55527,1.11029 8.59552,1.61465 8.59552,0.5392 z m 16.35713,-2.29865 c 1.19348,-0.94035 0.26168,-1.0984 -2.92091,-0.49547 -5.77543,1.09415 -6.75872,1.92774 -2.23938,1.89842 1.87426,-0.0116 4.19639,-0.64349 5.16029,-1.40295 z m -40.30864,-2.90656 c -3.211939,-1.70567 -5.05665,-1.70567 -2.920916,0 0.963902,0.76982 2.541197,1.36394 3.505099,1.32028 1.155579,-0.0523 0.956589,-0.50206 -0.584183,-1.32028 z m 54.32904,-2.1658 c 1.6065,-1.13491 2.39515,-2.06348 1.75255,-2.06348 -0.6426,0 -2.48278,0.92857 -4.08928,2.06348 -1.60651,1.13491 -2.39515,2.06348 -1.75255,2.06348 0.6426,0 2.48278,-0.92857 4.08928,-2.06348 z m -68.349437,-4.48333 c -2.992728,-2.8505 -6.426016,-5.18662 -6.426016,-4.37248 0,0.73392 7.31144,6.65182 8.178565,6.61976 0.321301,-0.0115 -0.467346,-1.02315 -1.752549,-2.24728 z m 85.290747,-7.02286 c 4.58605,-4.64555 3.32881,-4.67766 -1.75255,-0.0448 -2.17749,1.98532 -3.4626,3.60644 -2.85581,3.60249 0.60679,-0.004 2.68056,-1.60493 4.60836,-3.55773 z m -98.726961,-4.27806 c 0,-0.34297 -1.708736,-2.02691 -3.797191,-3.74206 l -3.797191,-3.11844 3.27816,3.74206 c 3.157988,3.60488 4.316222,4.44171 4.316222,3.11844 z m 58.126231,-8.3983 c 1.44585,-1.66783 2.62882,-4.21863 2.62882,-5.66845 0,-2.3454 -1.09498,-2.63605 -9.93111,-2.63605 -8.83613,0 -9.931116,0.29065 -9.931116,2.63605 0,2.7062 3.891046,7.90656 7.010196,9.3691 2.74313,1.28621 7.34375,-0.37915 10.22321,-3.70065 z m 55.31021,-4.21512 c 1.85012,-4.27212 0.27648,-3.03721 -2.60852,2.04706 -1.88925,3.32945 -2.06352,4.09793 -0.59994,2.64551 1.13453,-1.12587 2.57834,-3.23753 3.20846,-4.69257 z M 45.181178,185.11987 c 0,-0.24279 -1.314412,-2.64311 -2.920916,-5.33406 -1.606504,-2.69095 -2.920916,-4.3794 -2.920916,-3.75211 0,1.33 4.592161,9.52759 5.337207,9.52759 0.277543,0 0.504625,-0.19864 0.504625,-0.44142 z m 80.427412,-8.05851 c 0.21687,-1.89551 -0.30889,-3.99722 -1.16837,-4.67047 -1.77922,-1.3937 -27.861119,-1.7269 -30.676278,-0.39188 -1.856846,0.88056 -2.550941,6.43694 -1.037697,8.30701 0.445725,0.55084 7.937875,0.82156 16.649225,0.60162 15.69954,-0.39637 15.84228,-0.4302 16.23312,-3.84628 z m 53.93473,-3.05103 c 0.68782,-1.58825 0.9877,-2.88774 0.6664,-2.88774 -0.3213,0 -1.14695,1.29949 -1.83477,2.88774 -0.68781,1.58826 -0.9877,2.88774 -0.6664,2.88774 0.3213,0 1.14695,-1.29948 1.83477,-2.88774 z m -53.32661,-7.58031 c 0.90228,-1.78679 1.97593,-5.03549 2.38593,-7.21935 l 0.74544,-3.97064 H 108.85715 88.366217 l 0.74544,3.97064 c 0.409992,2.18386 1.483659,5.43256 2.385927,7.21935 1.569228,3.1076 2.32328,3.24871 17.359566,3.24871 15.03628,0 15.79033,-0.14107 17.35956,-3.24871 z m -93.165167,-7.81363 c -0.988462,-2.25406 -1.818256,-3.64155 -1.843983,-3.08332 -0.0791,1.71628 2.639064,8.42004 3.155361,7.78199 0.267206,-0.33021 -0.322914,-2.44461 -1.311378,-4.69867 z m 155.112907,-9.87377 c 0.48499,-2.77183 0.38818,-3.55171 -0.26885,-2.1658 -0.56471,1.19119 -1.36781,4.11503 -1.78465,6.49741 -0.48499,2.77184 -0.38818,3.55172 0.26885,2.1658 0.56471,-1.19119 1.36781,-4.11502 1.78465,-6.49741 z m -58.61273,-1.96181 c 0.51019,-6.56163 2.55676,-12.47179 11.82026,-34.13491 3.23775,-7.57164 3.69633,-10.02769 3.63942,-19.492235 -0.10883,-18.099031 -7.189,-32.132082 -20.19373,-40.024365 -5.55859,-3.373382 -8.10462,-4.013641 -15.96052,-4.013641 -7.8559,0 -10.401932,0.640259 -15.960522,4.013641 -13.004731,7.892283 -20.084908,21.925334 -20.193729,40.024365 -0.0569,9.464545 0.401665,11.920595 3.639419,19.492235 9.263493,21.66312 11.310067,27.57328 11.820254,34.13491 l 0.545466,7.01536 h 20.149112 20.14911 z M 28.835218,138.63554 c -0.682198,-4.32582 -0.94454,-4.80847 -1.045176,-1.92293 -0.127319,3.65065 0.958756,9.0313 1.639337,8.12165 0.174161,-0.23278 -0.09321,-3.02221 -0.594161,-6.19872 z M 190.99089,126.18529 c -0.3963,-4.75613 -0.42066,-4.72604 -0.98935,1.22264 -0.32068,3.35435 -0.13784,5.54863 0.4063,4.87618 0.54414,-0.67246 0.80652,-3.41694 0.58305,-6.09882 z M 27.846556,117.8209 c 0.239972,-3.10972 0.03232,-5.34547 -0.461464,-4.96834 -0.898439,0.6862 -1.306568,10.62236 -0.436313,10.62236 0.253804,0 0.657804,-2.54432 0.897777,-5.65402 z M 188.87677,102.21467 c -1.25841,-2.423202 -1.29449,-2.418751 -0.65893,0.0813 0.36983,1.45468 0.75118,4.37851 0.84747,6.49742 l 0.17505,3.85254 0.48386,-3.93382 c 0.26612,-2.16359 -0.1152,-5.08743 -0.84745,-6.4974 z M 31.603348,92.431731 c 0.484988,-2.771838 0.388178,-3.551723 -0.26885,-2.165804 -0.564713,1.191192 -1.367806,4.115027 -1.784652,6.497411 -0.484988,2.771837 -0.388178,3.551722 0.268851,2.165803 0.564712,-1.191192 1.367805,-4.115026 1.784651,-6.49741 z M 184.93919,84.979068 c -0.98848,-2.254059 -1.81826,-3.641557 -1.84399,-3.083327 -0.0791,1.71629 2.63906,8.420044 3.15536,7.782003 0.26721,-0.330213 -0.32291,-2.444618 -1.31137,-4.698676 z M 39.489412,70.773695 40.63662,67.885956 38.734006,70.773695 c -1.04644,1.588256 -2.41886,4.18722 -3.049826,5.775476 l -1.147208,2.887738 1.902614,-2.887738 c 1.046439,-1.588256 2.41886,-4.18722 3.049826,-5.775476 z M 176.03822,64.276284 c -1.37271,-2.382384 -2.75396,-4.331607 -3.06943,-4.331607 -0.74241,0 0.61503,2.928882 2.84404,6.136443 2.80788,4.040545 2.94781,2.919997 0.22539,-1.804836 z M 48.853162,55.252102 c 1.889248,-3.329448 2.063527,-4.097934 0.599954,-2.64552 -2.082212,2.066334 -4.818218,7.338095 -3.808422,7.338095 0.300153,0 1.743964,-2.111659 3.208468,-4.692575 z M 165.46998,49.036829 c -0.82908,-1.234548 -2.60219,-2.893248 -3.94025,-3.686 -1.51179,-0.895682 -1.10584,-0.0486 1.07228,2.237462 3.98629,4.183867 5.07381,4.73315 2.86797,1.448538 z M 62.706674,40.452444 c 2.177494,-1.98532 3.46261,-3.606445 2.855815,-3.602501 -1.18422,0.0077 -8.549861,7.073422 -7.464179,7.160248 0.357108,0.02856 2.430871,-1.572427 4.608364,-3.557747 z m 88.211666,-4.483326 c -2.99272,-2.850501 -6.42601,-5.186627 -6.42601,-4.372479 0,0.733909 7.31143,6.651813 8.17856,6.619757 0.3213,-0.01184 -0.46735,-1.023153 -1.75255,-2.247278 z M 80.232171,28.901492 c 1.606504,-1.134912 2.395151,-2.063475 1.75255,-2.063475 -0.642602,0 -2.482779,0.928563 -4.089283,2.063475 -1.606504,1.134911 -2.395151,2.063475 -1.752549,2.063475 0.642601,0 2.482778,-0.928564 4.089282,-2.063475 z M 136.31376,27.52549 c 0,-0.923195 -8.52725,-3.727915 -9.11727,-2.998782 -0.26725,0.330268 1.28049,1.228671 3.43941,1.996448 4.75039,1.689383 5.67786,1.853114 5.67786,1.002334 z M 99.997041,22.921649 c 1.134219,-1.205855 -6.484882,-0.350258 -8.081205,0.907489 -1.193474,0.940341 -0.261679,1.098396 2.920916,0.495458 2.570406,-0.48696 4.892534,-1.118286 5.160289,-1.402947 z m 17.038669,-0.517568 c -0.39715,-0.794128 -2.66268,-1.351668 -5.03451,-1.238977 l -4.31242,0.204894 4.67347,1.034083 c 2.5704,0.568746 4.83594,1.126286 5.03451,1.238977 0.19858,0.112691 0.0361,-0.444849 -0.36105,-1.238977 z"
         id="path33"
         inkscape:connector-curvature="0" />
      <path
         style="fill:#f3c130;stroke-width:1.29883337"
         d="M 91.529269,236.68225 C 53.938096,228.2881 23.206229,189.86179 16.590865,142.9813 c -2.24953,-15.94156 -2.24953,-24.51508 0,-40.45663 6.700751,-47.485619 37.472753,-85.513707 75.897705,-93.7945057 12.89977,-2.7799735 19.83739,-2.7799735 32.73716,0 38.42495,8.2807987 69.19695,46.3088867 75.8977,93.7945057 2.24953,15.94155 2.24953,24.51507 0,40.45663 -8.91113,63.14969 -58.09481,105.20082 -109.594161,93.70095 z m 14.991151,-13.58037 c -5.16797,-1.6251 -7.594386,-1.6251 -7.594386,0 0,0.79413 2.497386,1.367 5.549736,1.27305 4.95382,-0.15251 5.17337,-0.2892 2.04465,-1.27305 z m 21.369,-2.1898 c 0.45648,-0.612 -0.9445,-0.69453 -3.11328,-0.1834 -2.16878,0.51113 -4.66616,0.92933 -5.54974,0.92933 -0.88358,0 -1.6065,0.5625 -1.6065,1.25 0,1.43524 9.01753,-0.31736 10.26952,-1.99593 z m -39.478684,-1.41987 c -5.353879,-2.54794 -8.610779,-2.50641 -4.089282,0.0521 1.927804,1.09089 4.556629,1.96329 5.841832,1.9387 1.516311,-0.029 0.900994,-0.728 -1.75255,-1.99084 z m 52.209224,-2.9067 c 2.32713,-1.20161 3.96827,-2.50962 3.64696,-2.90668 -0.64861,-0.80156 -9.12153,3.27523 -9.12153,4.38889 0,1.11061 0.95267,0.85269 5.47457,-1.48221 z m -66.229621,-2.83944 c 0,-0.38092 -2.10306,-2.01847 -4.673466,-3.63901 -2.570406,-1.62054 -4.673466,-2.40136 -4.673466,-1.73517 0,0.66619 1.708736,2.2622 3.797191,3.54668 4.002639,2.46176 5.549741,2.97123 5.549741,1.8275 z m 82.596781,-8.64693 c 4.26355,-4.63538 2.01223,-4.63614 -2.56368,-8.6e-4 -1.9278,1.9528 -2.87721,3.55379 -2.10979,3.55773 0.76742,0.004 2.87048,-1.59664 4.67347,-3.55687 z M 55.71344,197.8558 c -2.170588,-2.76755 -4.207015,-4.71 -4.525392,-4.31655 -0.768721,0.95 5.783118,9.34846 7.292946,9.34846 0.648434,0 -0.596966,-2.26436 -2.767554,-5.03191 z m 58.3327,-2.8655 c 1.82623,-1.16705 3.87583,-4.09089 4.55467,-6.49741 l 1.23426,-4.37547 H 108.85715 97.879225 l 1.231505,4.36574 c 1.25412,4.44589 5.71663,8.46692 9.51235,8.57127 1.15646,0.0318 3.59685,-0.89707 5.42306,-2.06413 z m 56.72276,-5.08235 c 1.84053,-2.37409 3.08592,-4.63846 2.76754,-5.03191 -0.31836,-0.39345 -2.35479,1.549 -4.52538,4.31655 -2.17059,2.76755 -3.41599,5.03191 -2.76756,5.03191 0.64843,0 2.68486,-1.94245 4.5254,-4.31655 z M 45.13916,184.47838 c -0.02311,-0.59559 -1.33491,-3.03212 -2.915113,-5.41451 -3.46971,-5.23109 -3.903082,-2.71131 -0.463169,2.69302 2.462779,3.8692 3.453791,4.66754 3.378282,2.72149 z m 81.1143,-5.5191 c 0.38775,-1.24873 0.16261,-3.52282 -0.5003,-5.05354 -1.09833,-2.53619 -2.59761,-2.78315 -16.89601,-2.78315 -14.298399,0 -15.797686,0.24696 -16.896017,2.78315 -0.662906,1.53072 -0.888037,3.80481 -0.500289,5.05354 1.05422,3.39506 33.738386,3.39506 34.792616,0 z m 54.87609,-7.29352 c 2.81943,-7.30655 1.45715,-7.91537 -1.52847,-0.68309 -1.34309,3.25347 -2.00292,5.9154 -1.46627,5.9154 0.53665,0 1.88428,-2.35453 2.99474,-5.23231 z m -53.87286,-7.40154 c 0.94156,-2.97798 1.78797,-8.31649 1.88091,-11.86334 0.17704,-6.75759 0.66645,-9.66865 2.75544,-16.38956 0.95866,-3.08433 1.53144,-3.60807 2.36861,-2.1658 0.81483,1.40382 0.93182,1.24017 0.44645,-0.62449 -0.74882,-2.87669 0.21088,-6.85838 1.65306,-6.85838 0.53116,0 1.13212,1.78679 1.33546,3.97064 0.42709,4.58718 2.5316,5.35383 2.9726,1.08291 l 0.29817,-2.88774 -1.07633,2.88774 c -0.99083,2.65835 -1.08285,2.59525 -1.15844,-0.79413 -0.0452,-2.02503 -0.60106,-4.32316 -1.2353,-5.10697 -0.75866,-0.93754 -0.10037,-3.33987 1.92431,-7.02195 C 151.90361,95.792847 144.63185,64.586368 124.04591,52.508812 96.031196,36.07287 64.691213,69.682184 73.666344,106.53638 c 0.887007,3.64228 2.689629,8.49128 4.00583,10.77558 2.233808,3.87682 2.259566,4.25631 0.386997,5.70151 -1.215858,0.93836 -1.946599,3.18268 -1.855061,5.69742 0.133233,3.66019 0.551605,4.10938 3.550005,3.81155 2.953577,-0.29336 3.09277,-0.15306 1.062239,1.07066 -2.198255,1.3248 -2.203992,1.38759 -0.09682,1.05954 2.77788,-0.43245 3.930147,-3.95838 1.293599,-3.95838 -1.224136,0 -1.601197,-0.65345 -1.041453,-1.80484 0.511371,-1.05188 -0.04085,-0.90129 -1.32369,0.36097 -1.210608,1.19119 -1.828721,1.39852 -1.373587,0.46074 0.455136,-0.93779 0.284603,-2.11973 -0.378963,-2.62654 -1.587841,-1.21275 -0.335617,-3.60967 1.885797,-3.60967 0.986069,0 2.927195,3.30389 4.453635,7.58031 3.14471,8.8101 4.174957,14.00297 4.368484,22.019 0.07669,3.17651 0.910458,8.21201 1.852819,11.18999 l 1.713384,5.41451 h 16.687591 16.68759 z M 34.028588,160.3592 c -1.009981,-2.98721 -2.099212,-5.10642 -2.420512,-4.70935 -0.321301,0.39706 0.242164,3.16601 1.252146,6.15322 1.009983,2.98722 2.099213,5.10643 2.420514,4.70937 0.321301,-0.39707 -0.242165,-3.16602 -1.252148,-6.15324 z M 188.74867,145.85489 c -0.0235,-1.87386 -0.58909,-1.11346 -1.61097,2.1658 -2.06177,6.61633 -2.02817,10.64121 0.0422,5.05354 0.88273,-2.38238 1.58867,-5.63109 1.56878,-7.21934 z M 29.297653,139.55023 c -0.424742,-3.28252 -1.181605,-5.96823 -1.681917,-5.96823 -0.890273,0 -0.840673,0.74688 0.610619,9.19456 1.074468,6.25426 1.954934,3.60265 1.071298,-3.22633 z m 40.833186,-9.93887 c -0.394171,-3.51322 -0.229595,-4.75676 0.46868,-3.54134 0.870382,1.515 1.346572,1.47056 2.490229,-0.23241 0.96119,-1.43125 1.021705,-2.40527 0.188958,-3.0413 -0.673805,-0.51462 -1.2251,-0.24761 -1.2251,0.59339 0,0.84099 -0.644724,1.36665 -1.43272,1.16812 -1.571165,-0.39585 -2.634434,5.13149 -1.617261,8.40726 1.177504,3.79209 1.740886,2.1159 1.127214,-3.35372 z m 73.777301,0.48128 c 0,-2.71326 -0.26288,-4.91041 -0.58418,-4.88255 -0.3213,0.0279 -1.37283,-0.0362 -2.33673,-0.14237 -1.55782,-0.17165 -1.55782,-0.34861 0,-1.59275 1.05303,-0.84099 1.19714,-1.40848 0.36104,-1.42176 -2.24151,-0.0357 -3.01356,2.80651 -1.01928,3.75224 1.00463,0.47642 1.8266,2.31276 1.8266,4.08076 0,2.51831 0.84419,5.13972 1.65519,5.13972 0.0535,0 0.0973,-2.21995 0.0973,-4.93323 z m 47.18061,-1.92515 c -0.1234,-6.12193 -0.23401,-6.39325 -1.03013,-2.52677 -1.31502,6.38658 -1.31502,9.38515 0,9.38515 0.6426,0 1.10616,-3.08627 1.03013,-6.85838 z m -128.390424,3.96426 c 2.635978,2.01327 4.681814,-1.17863 4.681814,-7.30455 0,-3.0324 -0.394323,-5.81466 -0.876275,-6.18279 -0.481951,-0.36815 -0.699495,2.07435 -0.483431,5.42773 0.385686,5.98598 0.3254,6.09707 -3.308604,6.09707 -3.274496,0 -3.639772,-0.39871 -3.166753,-3.45662 0.357391,-2.31041 0.146255,-2.97659 -0.636717,-2.009 -0.644959,0.79704 -0.80622,3.24577 -0.358822,5.44869 0.488335,2.40447 1.142528,3.34131 1.639425,2.34773 0.521231,-1.04225 1.448709,-1.17834 2.509363,-0.36826 z m 95.230214,0.006 c 0.39715,-0.79413 0.1653,-1.44387 -0.51523,-1.44387 -0.68052,0 -1.23732,0.64974 -1.23732,1.44387 0,0.79413 0.23185,1.44387 0.51523,1.44387 0.28337,0 0.84017,-0.64974 1.23732,-1.44387 z m -4.96556,-0.95625 c -0.80325,-0.40054 -1.46046,-1.68707 -1.46046,-2.85896 0,-1.17188 0.48944,-1.75688 1.08764,-1.3 0.5982,0.4569 1.35042,0.30525 1.6716,-0.33698 0.32119,-0.64224 -0.42077,-1.26124 -1.64881,-1.37555 -1.22803,-0.11435 -2.55261,0.43166 -2.9435,1.21328 -1.16417,2.32784 0.43691,5.62292 2.67269,5.50047 1.224,-0.067 1.47973,-0.41396 0.62084,-0.84226 z m -87.919573,-7.81364 c 0,-0.47074 -0.788647,-0.85591 -1.752549,-0.85591 -0.963903,0 -1.494229,0.31924 -1.178504,0.70942 0.315726,0.39017 -0.0786,1.68574 -0.876274,2.87906 -1.279925,1.91473 -1.141464,1.93194 1.178503,0.14649 1.445853,-1.11273 2.628824,-2.40831 2.628824,-2.87906 z m -36.357595,-10.361 c 0.07603,-1.38972 -0.387529,-2.52677 -1.030131,-2.52677 -0.642601,0 -1.10616,3.08627 -1.030131,6.85838 0.123391,6.12193 0.234006,6.39325 1.030131,2.52677 0.490543,-2.38238 0.954102,-5.46865 1.030131,-6.85838 z m 161.364338,-6.91561 c -0.47469,-3.20799 -1.26827,-6.294262 -1.7635,-6.858378 -0.49522,-0.564117 -0.56201,1.167208 -0.14841,3.847388 0.4136,2.68019 0.75201,5.76646 0.75201,6.85838 0,1.09193 0.45517,1.98532 1.01149,1.98532 0.55632,0 0.6231,-2.62472 0.14841,-5.83271 z M 32.145366,90.265927 c -0.0033,-1.191192 -0.728237,-0.21658 -1.610964,2.165804 -0.882727,2.382384 -1.588674,5.631089 -1.568769,7.219345 0.02348,1.873854 0.589089,1.113454 1.610964,-2.165804 0.866127,-2.779448 1.572073,-6.028153 1.568769,-7.219345 z m 152.487494,-7.31752 c -1.11014,-3.428754 -2.19614,-5.575297 -2.41333,-4.770096 -0.49086,1.819826 3.09161,12.660374 3.86714,11.701967 0.31054,-0.383774 -0.34367,-3.503116 -1.45381,-6.931871 z M 38.170979,74.383367 c 1.311323,-3.176512 2.102929,-5.775476 1.759122,-5.775476 -0.75854,0 -5.253716,8.946204 -5.259854,10.468051 -0.0099,2.446865 1.251353,0.756255 3.500732,-4.692575 z M 175.91468,63.596571 c -1.53856,-2.791818 -3.22273,-5.080471 -3.74261,-5.085898 -1.0434,-0.01083 -0.36372,1.632296 3.12403,7.552689 3.37963,5.736843 3.93,3.542033 0.61858,-2.466791 z M 51.577504,51.485416 c -0.768722,-0.949987 -7.564693,7.146787 -7.564693,9.012635 0,0.801336 1.832302,-0.737732 4.071781,-3.420148 2.239478,-2.682417 3.811288,-5.199036 3.492912,-5.592487 z M 163.7587,46.934794 c -1.84054,-2.3741 -3.87697,-4.316546 -4.5254,-4.316546 -0.64843,0 0.59697,2.26436 2.76756,5.031912 2.17059,2.767551 4.20702,4.709997 4.52538,4.316547 0.31838,-0.393452 -0.92701,-2.657813 -2.76754,-5.031913 z m -99.883659,-7.1311 c 1.606504,-1.593192 2.272004,-2.911158 1.478891,-2.928817 -0.793114,-0.01766 -3.159056,1.958898 -5.257649,4.392347 -3.975957,4.610368 -1.301354,3.574481 3.778758,-1.46353 z m 88.795849,-2.693501 c 0,-1.428878 -8.24289,-6.444683 -9.01765,-5.487242 -0.30239,0.373683 1.47144,1.997168 3.94185,3.607744 5.29596,3.452706 5.0758,3.371187 5.0758,1.879498 z M 78.46322,30.260777 c 2.397038,-1.237713 4.095368,-2.575257 3.774068,-2.972321 -0.681951,-0.842757 -9.015316,3.249459 -9.015316,4.427097 0,1.151883 0.417374,1.036036 5.241248,-1.454776 z m 54.92962,-4.299169 c -1.9278,-1.090875 -4.55662,-1.963285 -5.84183,-1.938687 -1.5163,0.02902 -0.901,0.727997 1.75255,1.990833 5.35388,2.547938 8.61078,2.506408 4.08928,-0.05215 z M 98.487897,23.84795 c 0.883577,0 1.606503,-0.562498 1.606503,-1.249995 0,-1.435235 -9.017532,0.317355 -10.269521,1.995919 -0.456478,0.612007 0.944497,0.694542 3.113277,0.183408 2.16878,-0.511133 4.666164,-0.929332 5.549741,-0.929332 z m 19.716183,-1.443869 c -0.39715,-0.794128 -2.92557,-1.366995 -5.6187,-1.273038 -4.62514,0.16136 -4.70227,0.231936 -1.3915,1.273038 5.1839,1.630119 7.82544,1.630119 7.0102,0 z"
         id="path31"
         inkscape:connector-curvature="0" />
      <path
         style="fill:#f1be2f;stroke-width:1.29883337"
         d="M 91.529269,236.68225 C 53.938096,228.2881 23.206229,189.86179 16.590865,142.9813 c -2.24953,-15.94156 -2.24953,-24.51508 0,-40.45663 6.700751,-47.485619 37.472753,-85.513707 75.897705,-93.7945057 12.89977,-2.7799735 19.83739,-2.7799735 32.73716,0 38.42495,8.2807987 69.19695,46.3088867 75.8977,93.7945057 2.24953,15.94155 2.24953,24.51507 0,40.45663 -8.91113,63.14969 -58.09481,105.20082 -109.594161,93.70095 z m 24.088641,-7.42368 c -3.35019,-0.29065 -9.13361,-0.29332 -12.85203,-0.006 -3.718417,0.2874 -0.97735,0.52522 6.09127,0.52847 7.06862,0.003 10.11096,-0.23188 6.76076,-0.52255 z m -21.365342,-1.82508 c -2.265181,-1.80905 -3.505099,-1.80905 -3.505099,0 0,0.79413 1.182971,1.43392 2.628825,1.42176 2.125772,-0.0179 2.293456,-0.28996 0.876274,-1.42176 z m 32.714262,0 c 0,-1.80905 -1.23992,-1.80905 -3.5051,0 -1.41718,1.1318 -1.2495,1.40387 0.87627,1.42176 1.44586,0.0122 2.62883,-0.62763 2.62883,-1.42176 z m -23.68376,-0.87234 c -0.38825,-0.47979 -1.39596,-0.53107 -2.23937,-0.11393 -0.93204,0.46092 -0.6552,0.80306 0.70589,0.87233 1.23165,0.0627 1.92172,-0.27856 1.53348,-0.75835 z m -18.377433,-1.83492 c 0,-0.69486 -1.370544,-1.26338 -3.045655,-1.26338 -2.149411,0 -2.579179,0.36527 -1.460458,1.24128 2.063343,1.61567 4.506113,1.62766 4.506113,0.0221 z m 50.823943,-0.18048 c -0.39715,-0.79413 -1.21683,-1.44387 -1.82151,-1.44387 -0.60468,0 -1.09941,0.64974 -1.09941,1.44387 0,0.79413 0.81968,1.44387 1.82151,1.44387 1.00183,0 1.49656,-0.64974 1.09941,-1.44387 z m -46.345205,-2.86563 c 1.684203,0.0191 1.71051,0.21121 0.194728,1.42176 -1.510332,1.20621 -1.479493,1.40271 0.223138,1.42176 2.864958,0.0321 3.796351,-2.71604 1.311373,-3.86925 -1.165282,-0.54077 -2.644459,-1.8188 -3.287061,-2.84006 -1.401209,-2.22689 -7.957642,-1.60915 -8.327068,0.78457 -0.143235,0.92809 -0.01157,1.08973 0.292564,0.35922 0.748816,-1.79858 7.29367,1.33479 6.93974,3.32242 -0.151143,0.8488 -0.05428,1.05597 0.21525,0.46037 0.269532,-0.59559 1.366334,-1.07295 2.437336,-1.06079 z m 20.996685,0.35938 c -0.94143,-1.40186 -2.84246,-1.79987 -6.11833,-1.281 -2.61388,0.41403 -5.146836,0.78578 -5.628787,0.82613 -0.481952,0.0403 -0.876275,0.75718 -0.876275,1.59294 0,0.92901 2.718302,1.39833 6.994602,1.20762 5.86725,-0.26166 6.77448,-0.63972 5.62879,-2.34569 z m 17.16995,-0.75484 c 0.78285,-0.97316 -0.13272,-1.15117 -2.77487,-0.53952 -2.16878,0.50208 -4.92904,0.91287 -6.13392,0.91287 -1.20488,0 -2.19069,0.58792 -2.19069,1.30647 0,1.68136 9.55941,0.23462 11.09948,-1.67982 z m 15.77295,0.37335 c 0.9639,-0.76981 1.22678,-1.39964 0.58418,-1.39964 -0.6426,0 -1.95701,0.62983 -2.92091,1.39964 -0.96391,0.76982 -1.22679,1.39965 -0.58419,1.39965 0.6426,0 1.95702,-0.62983 2.92092,-1.39965 z m -4.67347,-2.88774 c -1.461,-1.1668 -1.36382,-1.43099 0.58419,-1.58802 1.2852,-0.10367 3.38826,-0.13009 4.67346,-0.0589 1.28521,0.0712 1.67626,-0.23434 0.869,-0.67898 -0.80726,-0.44465 -1.23627,-1.27128 -0.95337,-1.83698 0.2829,-0.56568 0.0313,-1.97211 -0.55901,-3.12538 -0.92399,-1.80501 -1.07588,-1.78923 -1.09128,0.11334 -0.009,1.21562 -1.72662,3.01581 -3.81508,4.00041 -3.05828,1.44182 -3.45615,2.06106 -2.04464,3.18218 0.9639,0.76559 2.27832,1.39199 2.92092,1.39199 0.6426,0 0.37972,-0.62983 -0.58419,-1.39965 z m -68.237864,-1.66696 c 0.518319,-1.03641 0.320308,-1.27488 -0.523482,-0.63042 -0.752132,0.57446 -1.656995,0.0709 -2.029766,-1.12961 -0.369942,-1.19138 -1.349968,-1.84493 -2.177832,-1.45234 -0.827865,0.3926 -2.324094,-0.29818 -3.324953,-1.53504 -2.040158,-2.52123 -3.682711,-3.02824 -2.56408,-0.79147 0.54843,1.09663 8.072434,6.71566 9.563315,7.14202 0.122726,0.0351 0.598284,-0.68631 1.056798,-1.60314 z m 3.985682,-3.37471 c -0.700626,-1.04327 -0.857598,-2.17842 -0.348826,-2.52255 0.508772,-0.34414 0.23453,-0.41193 -0.609428,-0.15063 -0.843958,0.26128 -3.0118,-0.46902 -4.817427,-1.62292 -1.805628,-1.15391 -3.610171,-1.69365 -4.010098,-1.19941 -0.399926,0.49424 1.373592,2.06091 3.941152,3.4815 2.56756,1.42058 4.668291,3.30275 4.668291,4.18256 0,0.87982 0.551295,1.17861 1.2251,0.66399 0.848309,-0.64791 0.833311,-1.51909 -0.04877,-2.83254 z m 92.740442,-11.111 c 4.21104,-4.69681 8.82973,-10.61833 10.26377,-13.15895 1.43403,-2.54062 -1.98399,1.06594 -7.59562,8.01456 -5.61162,6.94862 -10.97424,12.63385 -11.91693,12.63385 -0.94268,0 -1.71398,0.63737 -1.71398,1.41636 0,0.779 -1.31441,1.82404 -2.92092,2.32234 -1.6065,0.49828 -2.92091,1.52684 -2.92091,2.28568 0,2.44834 8.93666,-4.73831 16.80459,-13.51384 z m -113.955696,1.33036 c -2.988885,-3.36258 -7.642148,-9.03762 -10.340582,-12.6112 -3.645826,-4.82821 -4.268735,-5.31513 -2.424704,-1.89531 2.418668,4.48551 16.172009,20.68813 17.522454,20.64296 0.372444,-0.013 -1.768282,-2.77385 -4.757168,-6.13645 z m 104.307346,2.97525 c 1.21426,0.0572 1.8986,-1.08763 1.8986,-3.17625 0,-1.79613 -0.69981,-3.2657 -1.55511,-3.2657 -0.85531,0 -1.32114,0.46784 -1.03518,1.03963 0.28595,0.57179 -0.26294,1.84254 -1.21977,2.82389 -1.38878,1.42436 -2.1521,1.38454 -3.78432,-0.19738 -1.80907,-1.7533 -1.87755,-1.71679 -0.59433,0.31703 0.79768,1.26426 1.06056,2.8297 0.58418,3.47876 -0.47636,0.64905 0.1854,0.66496 1.4706,0.0354 1.28521,-0.62962 3.1911,-1.10451 4.23533,-1.05531 z m -98.586882,-7.30365 c 0.133567,-2.19127 -0.104838,-2.59407 -0.759985,-1.28405 -0.712478,1.42464 -1.733274,0.68759 -4.024607,-2.90594 -1.973937,-3.09576 -3.07463,-3.99252 -3.08296,-2.51176 -0.0071,1.26665 1.038574,3.47901 2.323777,4.91636 1.285203,1.43736 2.336733,3.46689 2.336733,4.51007 0,3.21697 3.000243,0.66798 3.207042,-2.72468 z m 44.296312,-3.15572 c -0.43338,-1.39566 -0.0882,-1.82602 1.03664,-1.29258 0.92748,0.43983 1.46043,1.25141 1.18434,1.80349 -0.27611,0.55209 1.27025,1.00381 3.43634,1.00381 2.16609,0 3.71245,-0.45172 3.43634,-1.00381 -0.2761,-0.55208 0.31093,-1.3893 1.30452,-1.86048 1.21055,-0.57407 1.53724,-0.26674 0.99025,0.9316 -0.56287,1.23313 -0.41926,1.34005 0.46255,0.34443 0.70336,-0.79412 2.10196,-3.88039 3.10801,-6.85837 l 1.82917,-5.41451 H 108.85715 97.726309 l 1.708607,5.05354 c 0.939744,2.77945 1.451834,5.05354 1.137994,5.05354 -0.621611,0 2.17789,4.18693 2.8595,4.27668 0.2294,0.0302 0.12474,-0.88659 -0.23258,-2.03734 z m 64.08742,-2.26289 c 0.40362,-0.80708 1.30454,-1.03156 2.00203,-0.49884 0.69764,0.53283 0.93653,0.30546 0.531,-0.50541 -0.40544,-0.81071 0.30197,-2.63615 1.57202,-4.05655 2.97927,-3.33198 2.9124,-4.35206 -0.3049,-4.65156 -1.76243,-0.16407 -2.11645,0.13674 -1.08664,0.92327 1.14065,0.8712 0.61915,2.11112 -2.05938,4.89642 -1.97275,2.05138 -3.58682,4.0966 -3.58682,4.54494 0,1.38038 2.15596,0.90087 2.93269,-0.65227 z m -122.690255,-7.1958 c -0.39715,-0.79412 -0.252924,-1.44386 0.320501,-1.44386 0.573426,0 1.042593,-0.94604 1.042593,-2.10229 0,-1.15627 -0.378565,-1.81316 -0.841255,-1.45977 -0.46269,0.35339 -1.49097,-0.32494 -2.285066,-1.50738 -1.15258,-1.71626 -1.120365,-2.65958 0.159708,-4.67668 1.418769,-2.23564 1.389213,-2.32027 -0.256531,-0.73447 -1.023028,0.98577 -2.255984,1.31065 -2.739901,0.72194 -0.483918,-0.5887 -0.698424,0.22911 -0.476682,1.81737 0.221742,1.58825 0.928932,3.35135 1.571533,3.91798 0.642602,0.56662 1.234087,1.70366 1.314412,2.52677 0.08033,0.82309 0.211767,2.14627 0.292092,2.94039 0.08032,0.79413 0.70284,1.44387 1.383366,1.44387 0.680525,0 0.91238,-0.64974 0.51523,-1.44387 z m -8.039474,-6.53178 c -1.040403,-1.28574 -1.891641,-3.26589 -1.891641,-4.40037 0,-1.13446 -0.544264,-2.06267 -1.209474,-2.06267 -0.787788,0 -0.733739,1.13267 0.155024,3.24871 1.910782,4.54934 3.625987,7.0495 4.28095,6.2401 0.30623,-0.37846 -0.294457,-1.74004 -1.334859,-3.02577 z m 146.628799,-1.12894 1.31884,-3.16829 -2.48092,3.18833 c -2.58908,3.32733 -3.32009,5.5643 -1.31884,4.03581 0.63914,-0.48816 1.75556,-2.31328 2.48092,-4.05585 z m -56.21949,0.44138 c -0.9639,-0.76981 -1.18297,-1.40961 -0.48682,-1.42176 0.69616,-0.0116 1.26573,-0.96815 1.26573,-2.1244 0,-1.15626 -0.38305,-1.80973 -0.85121,-1.45215 -0.46816,0.35756 -1.15269,-0.32076 -1.52115,-1.50739 -0.54858,-1.76663 -3.52675,-2.15752 -16.43845,-2.15752 -14.626502,0 -15.86002,0.2113 -17.032017,2.91759 -0.694928,1.60466 -0.973033,3.49839 -0.618012,4.20828 0.355021,0.70988 -0.01499,1.61978 -0.822243,2.02197 -0.807256,0.4022 7.470265,0.77261 18.394492,0.82315 13.22385,0.0612 19.27649,-0.37591 18.10968,-1.30777 z m 52.65018,-3.50447 c -0.0666,-0.47157 0.67826,-2.76754 1.65519,-5.10217 0.97692,-2.33463 1.77622,-4.65606 1.77622,-5.15873 0,-1.63699 -2.91665,0.24006 -3.06696,1.97377 -0.0803,0.92648 -0.21177,2.37261 -0.2921,3.2136 -0.0803,0.841 -0.58215,1.196 -1.11515,0.7889 -0.77706,-0.59348 -0.91877,2.38063 -0.29662,6.22491 0.15215,0.94015 1.47544,-0.97677 1.33942,-1.94028 z m 5.76814,-1.39459 c 0,-0.31211 -0.78865,-0.94145 -1.75255,-1.39856 -0.9639,-0.4571 -1.75255,-0.20174 -1.75255,0.56745 0,0.76921 0.78865,1.39856 1.75255,1.39856 0.9639,0 1.75255,-0.25536 1.75255,-0.56745 z m -58.76667,-6.1198 c -0.4058,-0.50148 -0.1712,-2.22014 0.52131,-3.81922 0.69252,-1.5991 1.45741,-5.89942 1.69978,-9.55628 0.73513,-11.09176 1.67124,-16.05563 4.2786,-22.68784 2.51472,-6.39657 4.61727,-8.57186 3.58917,-3.71332 -0.30582,1.4452 0.26916,3.47398 1.27775,4.5084 1.00856,1.03441 1.84182,1.3139 1.85166,0.62106 0.009,-0.69282 0.52755,-0.28507 1.15048,0.90612 1.00674,1.92515 1.13656,1.92515 1.16836,0 0.0291,-1.76321 0.22212,-1.80241 1.03821,-0.21082 0.65582,1.27901 0.95262,0.17533 0.85838,-3.19201 -0.0792,-2.83083 0.38173,-5.01006 1.02433,-4.84272 0.6426,0.16735 1.04362,1.60375 0.89116,3.19201 -0.25833,2.69104 -0.19236,2.71047 0.96856,0.28536 1.55711,-3.25273 -0.79856,-7.62556 -2.9302,-5.4393 -0.83216,0.85349 -1.99762,0.86869 -3.05799,0.0399 -1.49592,-1.16921 -1.49094,-1.34755 0.0391,-1.40518 1.37781,-0.0518 1.3137,-0.38185 -0.29982,-1.54307 -1.62455,-1.16916 -1.79499,-2.07136 -0.81765,-4.32814 0.67909,-1.5681 1.80231,-2.41757 2.49604,-1.88773 0.73957,0.56487 1.02933,0.1337 0.70048,-1.04246 -0.30846,-1.1032 0.1783,-4.60478 1.0817,-7.7813 1.69191,-5.94909 1.73521,-28.493706 0.0522,-27.2097 -0.81177,0.619339 -1.31686,-2.06857 -1.19225,-6.344713 0.0288,-0.984114 -0.35916,-1.475152 -0.86188,-1.091196 -1.22501,0.935625 -2.41064,-3.112148 -1.63924,-5.596402 0.33806,-1.088714 -0.27857,-2.403071 -1.37029,-2.920791 -1.6665,-0.79029 -1.74805,-0.588535 -0.50828,1.25755 3.06077,4.55763 0.31484,1.959018 -4.12205,-3.900916 -2.54017,-3.354876 -3.30408,-4.816793 -1.69758,-3.248705 l 2.921,2.851124 -2.23295,-3.258563 c -1.22812,-1.792208 -2.8221,-3.09169 -3.54218,-2.887738 -1.25731,0.356112 -11.12974,-4.515645 -12.33455,-6.086735 -0.3213,-0.418982 -4.26454,-0.761785 -8.76275,-0.761785 -4.49821,0 -8.44145,0.342803 -8.76275,0.761785 -0.949648,1.238359 -11.020337,6.517493 -11.06163,5.798595 -0.02082,-0.36243 -2.403793,2.263692 -5.2955,5.835827 -4.655568,5.751041 -4.789364,5.834135 -1.168366,0.725621 l 4.089283,-5.769171 -4.865574,4.986886 c -2.676065,2.742786 -4.664184,5.799062 -4.418043,6.791722 0.606841,2.44732 -0.672652,6.287657 -1.806378,5.421754 -0.502714,-0.383957 -0.89056,0.107077 -0.861881,1.091195 0.124615,4.276144 -0.380475,6.964052 -1.192247,6.344713 -1.682951,-1.284005 -1.639654,21.260613 0.05226,27.209703 0.903395,3.17651 1.390161,6.6781 1.081703,7.7813 -0.325803,1.16522 -0.03777,1.60632 0.6873,1.05252 2.019911,-1.54274 3.718687,3.65153 2.280404,6.97269 -1.603282,3.70217 -2.288665,15.38924 -0.696278,11.87284 0.600656,-1.3264 2.248948,-2.36597 3.66287,-2.31015 2.485339,0.098 2.493116,0.14567 0.234035,1.43161 -2.189782,1.24648 -2.19587,1.30819 -0.09682,0.98141 2.777876,-0.43245 3.930143,-3.95838 1.293595,-3.95838 -1.224136,0 -1.601197,-0.65345 -1.041453,-1.80484 0.511371,-1.05188 -0.04085,-0.90129 -1.32369,0.36097 -1.210608,1.19119 -1.828721,1.39852 -1.373587,0.46074 0.455136,-0.93779 0.284603,-2.11973 -0.378963,-2.62654 -1.587841,-1.21275 -0.335617,-3.60967 1.885797,-3.60967 3.370028,0 8.071916,16.50278 9.093491,31.91653 0.242365,3.65686 1.007266,7.95718 1.699779,9.55628 0.692513,1.59908 0.927104,3.31774 0.521313,3.81922 -0.405793,0.50147 7.58681,0.91178 17.76133,0.91178 10.17452,0 18.16713,-0.41031 17.76133,-0.91178 z m 12.12426,-38.34844 c -0.0507,-2.13698 -0.62659,-4.29355 -1.27967,-4.79235 -1.36192,-1.04019 -0.42005,-3.59511 1.32533,-3.59511 0.6426,0 0.8634,0.6098 0.49065,1.35513 -0.37273,0.74532 0.25344,2.03291 1.39151,2.86131 1.39365,1.01445 1.6496,1.86837 0.78394,2.61551 -0.70689,0.61014 -1.58547,2.08394 -1.9524,3.27513 -0.39478,1.28162 -0.70479,0.5796 -0.75936,-1.71962 z M 35.890266,166.39073 c 1.306939,0.42236 2.280713,0.0123 2.280713,-0.96043 0,-0.93361 -0.536782,-1.2875 -1.192851,-0.78642 -0.656068,0.50108 -1.977536,-1.40979 -2.936595,-4.24639 -1.955663,-5.78424 -2.333305,-6.11535 -3.326551,-2.91666 -0.398992,1.28493 -0.203119,1.8645 0.459181,1.35866 1.125741,-0.85981 1.532006,1.36646 1.319311,7.22956 -0.05761,1.58826 0.16993,2.14454 0.505661,1.23619 0.33573,-0.90836 1.636739,-1.31989 2.891131,-0.91451 z m -6.365199,-3.3538 c -0.415812,-1.3391 -1.018905,-2.10987 -1.340206,-1.71281 -0.321301,0.39707 -0.243972,1.81758 0.17184,3.15668 0.415812,1.3391 1.018905,2.10987 1.340206,1.7128 0.321301,-0.39706 0.243973,-1.81757 -0.17184,-3.15667 z M 190.04073,162.0132 c 0.01,-0.64247 -0.50788,-0.76655 -1.15048,-0.27575 -0.6426,0.4908 -1.16032,1.99106 -1.15048,3.33392 0.0154,2.10411 0.17443,2.14222 1.15048,0.27575 0.62293,-1.19119 1.14064,-2.69146 1.15048,-3.33392 z m -101.226817,1.10584 c -0.38052,-1.22544 -0.942432,-1.91841 -1.248693,-1.53993 -0.306262,0.37848 -0.21028,1.38112 0.213291,2.22808 1.152068,2.30363 1.825432,1.85611 1.035402,-0.68815 z m 41.432367,-1.4198 c -0.35973,-0.44455 -1.01303,0.3568 -1.45179,1.78077 -0.63405,2.0578 -0.49985,2.22364 0.65405,0.80828 0.79849,-0.97944 1.15747,-2.1445 0.79774,-2.58905 z m 56.11558,-3.2105 c -0.54737,-3.09275 1.72,-8.76284 3.21971,-8.05165 1.18802,0.56338 1.62258,-0.3664 1.56329,-3.34482 -0.0719,-3.60738 -0.20815,-3.76268 -1.08624,-1.23738 -0.92961,2.67344 -1.02203,2.61985 -1.24536,-0.72194 -0.22919,-3.42958 -0.2665,-3.44758 -0.74756,-0.36097 -0.27849,1.78679 -0.97903,3.24871 -1.55678,3.24871 -0.57773,0 -0.7147,1.0812 -0.30437,2.40266 0.42196,1.35886 0.26409,2.03454 -0.36339,1.5553 -0.83953,-0.64121 -1.23975,4.61254 -0.55093,7.23202 0.23968,0.91149 1.2413,0.23673 1.07163,-0.72193 z M 27.655681,153.79617 c 0,-0.79413 -0.525765,-1.44387 -1.168366,-1.44387 -0.642602,0 -1.168367,0.64974 -1.168367,1.44387 0,0.79412 0.525765,1.44386 1.168367,1.44386 0.642601,0 1.168366,-0.64974 1.168366,-1.44386 z m 164.739669,0 c 0,-0.79413 -0.52577,-1.44387 -1.16837,-1.44387 -0.6426,0 -1.16836,0.64974 -1.16836,1.44387 0,0.79412 0.52576,1.44386 1.16836,1.44386 0.6426,0 1.16837,-0.64974 1.16837,-1.44386 z M 29.645917,140.1068 c -0.30883,-8.40661 -2.637047,-9.69923 -2.601237,-1.44422 0.01475,3.40024 0.421142,5.88386 0.903093,5.51917 0.481951,-0.36471 0.876275,0.025 0.876275,0.86598 0,0.841 0.2384,1.52909 0.529778,1.52909 0.291379,0 0.42282,-2.9115 0.292091,-6.47002 z m 165.068273,1.69223 c -0.0145,-2.57186 -0.2297,-2.75846 -1.15047,-0.99769 -1.48756,2.8446 -1.48756,6.18968 0,5.05355 0.6426,-0.4908 1.16031,-2.31594 1.15047,-4.05586 z m -170.141097,1.16812 c -0.369883,-1.19119 -0.879147,-2.16581 -1.131697,-2.16581 -0.252549,0 -0.459181,0.97462 -0.459181,2.16581 0,1.19119 0.509264,2.1658 1.131698,2.1658 0.622434,0 0.829065,-0.97461 0.45918,-2.1658 z M 22.676575,115.943 c -0.236759,-4.1958 -0.432961,-1.1313 -0.436002,6.80998 -0.003,7.94128 0.19067,11.3742 0.430471,7.62871 0.239803,-3.74548 0.242291,-10.24289 0.0055,-14.43869 z m 47.7381,19.1994 c 1.083992,1.11177 1.638931,1.16102 1.638931,0.14547 0,-0.84449 -0.525765,-1.93701 -1.168366,-2.42781 -0.642602,-0.4908 -1.20532,-2.6408 -1.250486,-4.77779 -0.07433,-3.51689 -0.184211,-3.61152 -1.158449,-0.99768 l -1.076328,2.88774 0.351562,-2.88774 c 0.19336,-1.58826 0.958623,-2.7331 1.700585,-2.5441 0.771099,0.19644 1.054935,-0.60344 0.662546,-1.8671 -0.37756,-1.21592 -0.949674,-1.88549 -1.271361,-1.48795 -0.321689,0.39755 -1.439708,-0.40035 -2.484487,-1.77311 -1.044779,-1.37276 -1.505274,-1.86492 -1.023323,-1.0937 0.481951,0.77123 0.876275,3.7531 0.876275,6.6264 0,4.87289 -0.242124,5.22418 -3.600695,5.22418 -3.168218,0 -3.536474,-0.41517 -3.066002,-3.45662 0.322244,-2.0832 0.111124,-2.93319 -0.531335,-2.13922 -0.586317,0.72456 -1.285143,3.21035 -1.552945,5.52398 -0.267804,2.31361 -0.184922,3.32089 0.18418,2.23837 0.566586,-1.6617 0.828233,-1.6617 1.680139,0 0.776139,1.51391 1.013173,1.5399 1.026934,0.11263 0.01316,-1.3639 0.596432,-1.47301 2.201004,-0.41178 1.200712,0.79413 2.502749,1.04887 2.893414,0.56608 0.390667,-0.48279 1.082049,0.3194 1.536407,1.78263 0.523105,1.68464 1.003399,2.00312 1.309486,0.86833 0.36999,-1.3717 0.867847,-1.39778 2.122314,-0.11118 z m 83.858865,0.1832 c 0.31471,-0.62928 -0.44291,-1.23865 -1.68359,-1.35415 -1.24069,-0.11551 -2.25579,0.39938 -2.25579,1.14415 0,1.64366 3.13872,1.81098 3.93938,0.21 z m 5.69964,0.18789 c -0.80325,-0.40054 -2.11766,-0.40054 -2.92092,0 -0.80325,0.40055 -0.14604,0.72827 1.46046,0.72827 1.60651,0 2.26371,-0.32772 1.46046,-0.72827 z m 31.41152,-8.32676 c 0.21949,-4.61927 -0.15918,-7.32209 -1.07893,-7.70096 -0.92581,-0.38137 -1.14546,0.29105 -0.63358,1.93954 0.56477,1.81882 0.36674,2.20499 -0.70927,1.38317 -1.15829,-0.88467 -1.347,0.27552 -0.84211,5.17765 0.35788,3.4748 0.67741,6.93506 0.71006,7.68948 0.0375,0.86632 0.45659,0.86632 1.13751,0 0.59297,-0.75442 1.23032,-4.57442 1.41632,-8.48888 z m 4.2101,-11.24373 c -0.23675,-4.1958 -0.43296,-1.1313 -0.43599,6.80998 -0.004,7.94128 0.19066,11.3742 0.43047,7.62871 0.23981,-3.74548 0.24229,-10.24289 0.006,-14.43869 z m -59.28104,18.44615 c 0,-0.3502 -0.52576,-1.03829 -1.16837,-1.52909 -0.6426,-0.4908 -1.16836,-0.20427 -1.16836,0.63672 0,0.841 0.52576,1.52909 1.16836,1.52909 0.64261,0 1.16837,-0.28652 1.16837,-0.63672 z m 24.60685,-2.15818 c 0.66625,1.30119 1.0681,1.43274 1.07932,0.35334 0.009,-0.94579 -0.46043,-2.08494 -1.04504,-2.53146 -1.43624,-1.09695 -4.7789,0.59333 -4.7789,2.41655 0,0.8136 0.81969,0.6255 1.8416,-0.42259 1.52623,-1.56535 2.02336,-1.53381 2.90302,0.18416 z m 32.27286,-1.80743 c -0.37296,-1.15182 -0.64982,-0.8097 -0.70588,0.87234 -0.0507,1.52207 0.2254,2.37486 0.61365,1.89508 0.38824,-0.4798 0.42974,-1.72514 0.0922,-2.76742 z m -39.35421,0.1855 c 0,-0.84099 -0.52577,-1.12751 -1.16837,-0.63671 -0.6426,0.4908 -1.16837,-0.15894 -1.16837,-1.44387 0,-1.28493 0.46619,-1.98017 1.03598,-1.54499 0.56979,0.4352 1.72741,-0.33864 2.57249,-1.71962 1.27345,-2.08103 1.27174,-2.22121 -0.0105,-0.81886 -0.85057,0.93061 -2.21788,1.37361 -3.03847,0.98446 -1.87066,-0.8871 -3.31626,1.83113 -2.45276,4.61202 0.7464,2.40371 4.22949,2.87114 4.22949,0.56757 z m -88.795853,-7.2408 c 0,-0.47074 -0.788647,-0.85591 -1.752549,-0.85591 -0.963903,0 -1.494229,0.31924 -1.178504,0.70942 0.315726,0.39017 -0.0786,1.68574 -0.876274,2.87906 -1.279925,1.91473 -1.141464,1.93194 1.178503,0.14649 1.445853,-1.11273 2.628824,-2.40831 2.628824,-2.87906 z m 8.881213,-0.60065 c 0.142426,-1.19922 -0.220287,-2.18041 -0.806029,-2.18041 -0.585742,0 -1.064985,0.5966 -1.064985,1.32577 0,0.72919 -0.340263,2.51597 -0.756142,3.97064 -0.615822,2.15405 -0.466244,2.31265 0.80603,0.85464 0.859193,-0.98461 1.678701,-2.7714 1.821126,-3.97064 z m -44.425948,-3.02958 c 0.201529,-12.58605 -2.587362,-14.88768 -3.195317,-2.63705 -0.220123,4.43559 -0.170201,8.34757 0.110937,8.69329 1.506211,1.85218 3.004867,-1.09047 3.08438,-6.05624 z m 123.272008,1.64732 c 0.58771,0.44887 1.06858,0.0739 1.06858,-0.83327 0,-2.14172 -2.68944,-1.04533 -3.05236,1.24436 -0.15262,0.96287 -0.009,1.08066 0.31886,0.26173 0.32799,-0.81894 1.07721,-1.1217 1.66492,-0.67282 z M 24.948709,113.09711 c -0.372973,-1.15182 -0.649825,-0.8097 -0.705888,0.87234 -0.05073,1.52207 0.22541,2.37486 0.613649,1.89508 0.388238,-0.4798 0.429746,-1.72514 0.09224,-2.76742 z m 164.836511,-8.82716 c -1.51894,-10.355165 -2.15522,-10.363817 -1.78862,-0.0243 0.19978,5.63495 0.76671,8.51626 1.59959,8.12969 0.91003,-0.42236 0.96571,-2.81033 0.18903,-8.10538 z M 25.301057,101.45591 c 0.0098,-0.59559 -0.507874,-1.0829 -1.150475,-1.0829 -0.642602,0 -1.160315,1.46192 -1.150475,3.24871 0.01446,2.62703 0.234623,2.83425 1.150475,1.0829 0.622921,-1.19119 1.140635,-2.65311 1.150475,-3.24871 z m 168.459473,-1.41723 c -0.86701,-1.071446 -1.01906,-0.507714 -0.51086,1.89394 0.41315,1.9524 0.94276,2.6069 1.23444,1.52552 0.28097,-1.04167 -0.0446,-2.58042 -0.72358,-3.41946 z M 31.205372,97.485272 c 0.57774,0 0.714708,-1.081198 0.304371,-2.402663 -0.481015,-1.549085 -0.287967,-2.052783 0.543396,-1.417816 0.847336,0.647168 1.171232,-0.38552 0.944649,-3.011846 -0.336645,-3.90206 -2.271705,-5.019981 -2.523007,-1.45759 -0.06955,0.985878 -0.206531,2.90916 -0.304408,4.27396 -0.102454,1.42865 -0.838895,2.168025 -1.735781,1.742702 -1.92352,-0.912175 -2.152386,3.616883 -0.327563,6.482151 1.073506,1.68558 1.366534,1.49608 1.674554,-1.0829 0.205344,-1.719298 0.84605,-3.125998 1.423789,-3.125998 z m -3.549691,-5.775476 c 0,-0.794128 -0.556794,-1.443869 -1.23732,-1.443869 -0.680525,0 -0.91238,0.649741 -0.51523,1.443869 0.39715,0.794128 0.953944,1.443869 1.23732,1.443869 0.283377,0 0.51523,-0.649741 0.51523,-1.443869 z M 191.4941,88.019333 c -0.96554,-2.132164 -1.14339,-1.912378 -1.14339,1.413005 0,2.56793 0.39778,3.446331 1.14339,2.524901 0.74561,-0.921428 0.74561,-2.291406 0,-3.937906 z m -4.98493,0.01476 c -0.82437,-1.227513 -1.48871,-5.288395 -1.47633,-9.024181 0.0137,-4.126888 -0.1802,-5.135406 -0.49403,-2.569995 -0.37786,3.088726 -0.78706,3.681429 -1.52412,2.20762 -0.55417,-1.108099 -1.22188,-1.708671 -1.48379,-1.334606 -0.8369,1.195248 3.89225,12.953007 5.20988,12.953007 0.81083,0 0.7274,-0.803823 -0.23161,-2.231845 z M 29.974523,80.434598 c -0.01542,-2.104114 -0.174423,-2.142225 -1.150475,-0.275754 -1.478682,2.827632 -1.478682,4.739041 0,3.609672 0.642601,-0.490798 1.160315,-1.991061 1.150475,-3.333918 z m 159.058347,0.193507 c -1.01829,-2.164037 -1.24628,-2.226413 -1.27546,-0.34894 -0.0377,2.431591 1.19079,4.620958 2.01885,3.597646 0.2731,-0.337503 -0.0615,-1.799421 -0.74339,-3.248706 z M 36.70622,80.279165 c -0.367114,-1.856266 1.691021,-7.337282 2.517996,-6.705665 0.48675,0.371764 0.801856,-0.718742 0.700236,-2.423347 -0.101625,-1.704604 -0.813749,-3.250091 -1.582511,-3.434416 -0.76876,-0.184324 -0.876239,-0.01198 -0.23884,0.382903 0.654941,0.405791 -0.09448,3.171699 -1.723341,6.360428 -3.378752,6.614367 -3.387356,6.662355 -1.194607,6.662355 0.928203,0 1.612684,-0.379015 1.521067,-0.842258 z m -4.232093,-6.28083 c -1.153897,-1.415377 -1.2881,-1.249529 -0.654046,0.808271 0.438758,1.423974 1.092063,2.225321 1.451788,1.780771 0.359725,-0.444548 7.41e-4,-1.609616 -0.797742,-2.589042 z m 3.043687,-3.375044 c -0.388239,-0.479785 -1.395955,-0.531081 -2.239369,-0.113993 -0.932045,0.46092 -0.655192,0.803055 0.705888,0.872338 1.231652,0.06269 1.921719,-0.278563 1.533481,-0.758349 z M 177.54351,69.505556 c 0.38836,0.479936 0.62346,-0.483366 0.52244,-2.140672 -0.10106,-1.657304 -0.89479,-3.350511 -1.76394,-3.762678 -0.86914,-0.412168 -1.20282,-1.504116 -0.7415,-2.426553 0.55989,-1.119554 0.32428,-1.284218 -0.70868,-0.495273 -1.12359,0.858158 -1.34309,0.523776 -0.80138,-1.220778 0.47095,-1.516658 0.15889,-2.402664 -0.84622,-2.402664 -0.9493,0 -1.52424,1.401678 -1.42378,3.471121 0.0926,1.909115 0.50324,3.215752 0.91237,2.903635 0.40914,-0.312115 1.39361,0.399973 2.18771,1.582421 1.15258,1.716251 1.12036,2.659581 -0.15971,4.676678 -1.41876,2.235651 -1.38921,2.32027 0.25653,0.734461 1.02303,-0.985769 2.1778,-1.399634 2.56616,-0.919698 z m 5.35211,-3.812701 c -3.34522,-7.355498 -12.43922,-20.003736 -18.8533,-26.221787 -2.71987,-2.636755 -0.34483,0.962732 5.27789,7.99886 5.6227,7.036127 10.22311,13.695973 10.22311,14.799658 0,1.103683 0.51575,2.006698 1.14611,2.006698 0.63036,0 1.476,1.624353 1.87921,3.609672 0.4032,1.98532 1.23551,3.609673 1.84956,3.609673 0.61406,0 -0.0712,-2.611249 -1.52258,-5.802774 z M 38.170979,61.608024 c 0,-1.832394 19.641566,-26.209122 21.118018,-26.209122 0.648259,0 2.339639,-1.392123 3.758622,-3.093609 l 2.579972,-3.093609 -4.019709,2.732642 C 56.279928,35.566328 38.172695,57.884011 35.375565,64.276409 l -2.21123,5.053417 2.503322,-3.188333 c 1.376828,-1.753582 2.503322,-3.793644 2.503322,-4.533469 z m 9.5676,-1.238316 c -1.190437,-0.563031 -1.090529,-1.327207 0.44824,-3.428465 1.089067,-1.487171 2.516854,-2.294006 3.172862,-1.792969 0.656007,0.501037 0.845347,0.216339 0.420755,-0.632662 -0.424592,-0.849001 -0.111497,-1.872708 0.695752,-2.274904 1.004286,-0.500363 0.914353,-0.752852 -0.284812,-0.799628 -1.901188,-0.07416 -8.178565,6.1637 -8.178565,8.127079 0,0.663225 1.182971,1.277909 2.628825,1.365966 1.445853,0.08806 1.939478,-0.16593 1.096943,-0.564417 z M 164.15739,47.038787 c -3.2869,-5.141711 -5.10256,-5.544907 -5.27696,-1.171834 -0.0713,1.786788 0.13428,2.39681 0.45673,1.355604 0.4556,-1.471144 1.07396,-1.347677 2.77428,0.553936 1.20341,1.345871 1.85629,3.110332 1.45086,3.921027 -0.42229,0.844375 -0.16098,1.033925 0.61173,0.443755 0.74934,-0.572321 1.38989,-0.190154 1.44113,0.859811 0.0703,1.442075 0.23134,1.464416 0.67911,0.09425 0.32278,-0.987685 -0.63882,-3.713136 -2.13688,-6.056554 z m -65.547784,0.482599 c -0.388249,-0.479785 -1.395965,-0.531081 -2.239373,-0.113993 -0.932041,0.46092 -0.655197,0.803055 0.705892,0.872338 1.231645,0.06269 1.921717,-0.278563 1.533481,-0.758349 z m 23.367324,0 c -0.38824,-0.479785 -1.39596,-0.531081 -2.23937,-0.113993 -0.93204,0.46092 -0.6552,0.803055 0.70589,0.872338 1.23165,0.06269 1.92172,-0.278563 1.53348,-0.758349 z M 60.882757,43.919414 c -0.267898,-0.535682 0.295771,-1.776885 1.252598,-2.758229 1.388775,-1.424361 2.15211,-1.384549 3.784327,0.197366 1.80907,1.753318 1.877543,1.716793 0.59432,-0.317021 -0.797676,-1.264259 -1.104373,-2.726177 -0.681547,-3.248706 1.468157,-1.814351 -1.451298,-0.938089 -3.8807,1.164775 -1.343773,1.163155 -2.818985,1.650461 -3.278249,1.082902 -0.459264,-0.567559 -0.728949,-0.382185 -0.599302,0.411943 0.504732,3.091626 -0.130401,4.229064 -1.209362,2.165804 -0.969409,-1.853769 -1.135162,-1.804093 -1.150475,0.344793 -0.01269,1.780106 0.80748,2.426181 2.818794,2.220467 1.560176,-0.159572 2.617495,-0.728415 2.349596,-1.264094 z m 91.788133,-7.098329 c 0,-0.465716 -2.27831,-2.214653 -5.06292,-3.886528 -3.81588,-2.291046 -5.06293,-2.55949 -5.06293,-1.089862 0,1.072449 0.3067,1.857276 0.68156,1.744056 1.45106,-0.438273 5.94592,2.072446 5.45775,3.048574 -0.28345,0.566783 0.49756,1.030515 1.73559,1.030515 1.23802,0 2.25095,-0.38104 2.25095,-0.846755 z m 5.25251,-2.87632 c -0.39997,-0.799775 -2.27118,-2.440813 -4.15823,-3.646752 -3.03131,-1.937184 -3.43101,-1.941267 -3.43101,-0.03505 0,1.254235 0.68357,1.833402 1.63268,1.383314 0.89798,-0.425839 2.34383,0.219579 3.21301,1.434264 1.7641,2.465333 3.87717,3.130952 2.74355,0.864221 z M 78.23463,30.586493 c 2.557471,-1.440491 4.100057,-3.151022 3.651145,-4.048654 -0.532041,-1.063851 -1.067489,-0.974126 -1.69686,0.284343 -0.505742,1.011265 -2.674522,1.838664 -4.819512,1.838664 -2.144989,0 -3.22083,0.279766 -2.390757,0.621701 1.233386,0.508073 1.233386,1.03479 0,2.881897 -0.830073,1.243109 -0.983458,1.957839 -0.340857,1.588287 0.642602,-0.369549 3.16118,-1.794358 5.596841,-3.166238 z m 59.83168,-3.287837 c 0,-0.704601 -0.78865,-1.345421 -1.75255,-1.424042 -4.99862,-0.407723 -5.84183,-0.700251 -5.84183,-2.026664 0,-0.794128 1.0205,-1.443869 2.26777,-1.443869 1.24728,0 2.62754,-0.71935 3.06723,-1.598557 0.55265,-1.105045 -0.0572,-1.251512 -1.97568,-0.474428 -1.52633,0.618272 -3.82004,1.041514 -5.09714,0.940538 -1.88582,-0.149104 -1.99556,0.07147 -0.58418,1.174253 1.37073,1.07102 1.12081,1.404048 -1.1831,1.576582 -2.75313,0.206174 -2.76992,0.254683 -0.29209,0.844467 1.44585,0.344151 2.62882,1.209887 2.62882,1.923859 0,0.713971 0.8749,0.883236 1.94421,0.376142 1.25352,-0.594439 1.6611,-0.35587 1.14729,0.671529 -0.52369,1.047139 0.31196,1.447411 2.43717,1.167399 1.77874,-0.234363 3.23408,-1.002609 3.23408,-1.707209 z m 10.62687,0.657812 c 0.51651,-1.0328 0.3205,-1.275028 -0.51523,-0.636723 -0.74189,0.566632 -1.34889,0.23386 -1.34889,-0.739489 0,-0.97335 -0.31553,-1.379793 -0.70118,-0.90321 -0.66835,0.82595 0.34799,3.94638 1.28536,3.94638 0.24545,0 0.82142,-0.750132 1.27994,-1.666958 z m -48.33501,-5.317652 c 0.46637,-0.567076 -1.50357,-1.014313 -4.377658,-0.993858 -2.874077,0.02046 -5.227273,0.476852 -5.22932,1.01422 -0.0021,0.537368 -0.923811,1.32663 -2.048364,1.753917 -1.124553,0.427287 0.847066,0.434858 4.381374,0.01682 3.534308,-0.418032 6.807592,-1.22403 7.273968,-1.791107 z m 19.09777,0.865314 c 0.42702,-0.52773 -0.46859,-1.280777 -1.99027,-1.673438 -3.7392,-0.96488 -10.36107,-1.898261 -10.36107,-1.460438 0,0.194577 -0.33324,1.426951 -0.74052,2.738608 -0.64472,2.076252 0.1041,2.31819 5.78744,1.869805 3.59039,-0.283266 6.87738,-0.946806 7.30442,-1.474537 z m 22.69965,0.34382 c 0,-0.794128 -0.55679,-1.443869 -1.23732,-1.443869 -0.68053,0 -0.91238,0.649741 -0.51523,1.443869 0.39715,0.794128 0.95395,1.443869 1.23733,1.443869 0.28337,0 0.51522,-0.649741 0.51522,-1.443869 z M 84.905637,20.779728 c 0,-1.605561 -2.44277,-1.593575 -4.506113,0.02211 -1.118721,0.87601 -0.688953,1.24128 1.460458,1.24128 1.675111,0 3.045655,-0.568524 3.045655,-1.263386 z m 10.515298,-3.597589 c 0,-0.304444 -1.05153,-0.553534 -2.336733,-0.553534 -1.285203,0 -2.336733,0.588912 -2.336733,1.308694 0,0.719783 1.05153,0.968872 2.336733,0.553534 1.285203,-0.415337 2.336733,-1.004251 2.336733,-1.308694 z m 21.882535,1.461866 c -0.38825,-0.479785 -1.39597,-0.531081 -2.23937,-0.113994 -0.93205,0.460921 -0.6552,0.803056 0.70589,0.872338 1.23164,0.06269 1.92172,-0.278563 1.53348,-0.758349 z m 9.66336,-0.571531 c 0,-0.794128 -1.18297,-1.398203 -2.62883,-1.342387 -2.50836,0.09683 -2.52175,0.158343 -0.29209,1.342387 1.28521,0.682496 2.46818,1.286571 2.62883,1.342386 0.16065,0.05582 0.29209,-0.548258 0.29209,-1.342386 z m -11.34892,-2.506522 c -3.35019,-0.29066 -9.13361,-0.293325 -12.85203,-0.0059 -3.718417,0.287402 -0.97735,0.525214 6.09127,0.528472 7.06862,0.0033 10.11096,-0.23189 6.76076,-0.522549 z"
         id="path29"
         inkscape:connector-curvature="0" />
      <path
         style="fill:#aa9863;stroke-width:1.29883337"
         d="M 91.529269,236.68225 C 53.938096,228.2881 23.206229,189.86179 16.590865,142.9813 c -2.24953,-15.94156 -2.24953,-24.51508 0,-40.45663 6.700751,-47.485619 37.472753,-85.513707 75.897705,-93.7945057 12.89977,-2.7799735 19.83739,-2.7799735 32.73716,0 38.42495,8.2807987 69.19695,46.3088867 75.8977,93.7945057 2.24953,15.94155 2.24953,24.51507 0,40.45663 -8.91113,63.14969 -58.09481,105.20082 -109.594161,93.70095 z m 37.774291,-8.58722 c 10.18699,-2.92895 27.14746,-13.52555 35.07978,-21.91723 14.71542,-15.56759 25.79375,-37.42714 29.70215,-58.60767 2.3309,-12.63175 2.33572,-36.96103 0.009,-49.634294 C 190.26763,77.079531 178.9316,54.718907 164.38334,39.328167 156.45102,30.936479 139.49055,20.339877 129.30356,17.410938 119.44765,14.577192 98.243673,14.575329 88.521639,17.407357 71.538764,22.35447 54.192442,35.733932 41.780203,53.459686 34.518017,63.830719 26.129164,84.385831 23.628812,97.935836 c -2.330908,12.631744 -2.335731,36.961024 -0.0098,49.634294 3.827701,20.8563 15.163734,43.21692 29.711984,58.60767 7.712567,8.1592 24.763126,18.94865 34.495599,21.8285 9.455309,2.79786 31.887635,2.84584 41.477005,0.0888 z"
         id="path27"
         inkscape:connector-curvature="0" />
      <path
         style="fill:#b08e2b;stroke-width:1.29883337"
         d="M 96.192664,237.42017 C 66.013537,232.3641 38.955958,208.41866 25.357333,174.73227 18.283965,157.21018 15.73072,143.42383 15.73072,122.75298 c 0,-20.67085 2.553245,-34.457202 9.626613,-51.979285 C 37.22821,41.367264 59.302292,19.327342 85.48982,10.734262 c 13.043141,-4.2799284 33.69152,-4.2799284 46.73466,0 26.18753,8.59308 48.26161,30.633002 60.13249,60.039433 7.07336,17.522083 9.62661,31.308435 9.62661,51.979285 0,20.67085 -2.55325,34.4572 -9.62661,51.97929 -17.58068,43.5507 -57.00222,69.24893 -96.164306,62.6879 z m 33.110896,-9.32514 c 10.18699,-2.92895 27.14746,-13.52555 35.07978,-21.91723 14.71542,-15.56759 25.79375,-37.42714 29.70215,-58.60767 2.3309,-12.63175 2.33572,-36.96103 0.009,-49.634294 C 190.26763,77.079531 178.9316,54.718907 164.38334,39.328167 156.45102,30.936479 139.49055,20.339877 129.30356,17.410938 119.44765,14.577192 98.243673,14.575329 88.521639,17.407357 71.538764,22.35447 54.192442,35.733932 41.780203,53.459686 34.518017,63.830719 26.129164,84.385831 23.628812,97.935836 c -2.330908,12.631744 -2.335731,36.961024 -0.0098,49.634294 3.827701,20.8563 15.163734,43.21692 29.711984,58.60767 7.712567,8.1592 24.763126,18.94865 34.495599,21.8285 9.455309,2.79786 31.887635,2.84584 41.477005,0.0888 z"
         id="path25"
         inkscape:connector-curvature="0" />
      <path
         style="fill:#8c7118;stroke-width:1.29883337"
         d="M 101.84695,238.06611 C 82.47054,234.89774 71.201577,230.11855 57.749002,219.36408 37.875208,203.47626 23.16431,177.48391 17.567666,148.3686 c -2.458678,-12.79073 -2.458678,-38.44051 0,-51.231241 C 25.878567,53.901731 53.227278,20.11218 88.129208,9.9580133 97.63007,7.1938862 116.55311,6.8770407 126.96683,9.3077177 c 35.20754,8.2178343 64.67477,43.5840933 73.1798,87.8296413 2.45868,12.790731 2.45868,38.440511 0,51.231241 -8.25357,42.93739 -36.13332,77.5595 -69.97736,86.90051 -8.05793,2.22399 -22.87674,3.68745 -28.32232,2.797 z m 23.2182,-8.38629 c 18.09288,-4.27803 32.05829,-13.57795 45.6937,-30.42862 13.63542,-16.85066 21.16083,-34.10914 24.62258,-56.46835 4.06166,-26.23409 0.17566,-52.536095 -11.33451,-76.716463 -5.03893,-10.585703 -20.7536,-30.005918 -29.31947,-36.233041 -29.24032,-21.2568382 -62.500278,-21.2568382 -91.740606,0 -8.56586,6.227123 -24.280531,25.647338 -29.319465,36.233041 -17.200851,36.135243 -17.200851,77.237943 0,113.373183 5.038934,10.58571 20.753605,30.00592 29.319465,36.23304 19.556662,14.21712 40.860616,19.02409 62.078306,14.00721 z"
         id="path23"
         inkscape:connector-curvature="0" />
    </g>
  </g>
</svg>
