<?xml version="1.0" encoding="UTF-8" standalone="no"?>
<!-- Created with Inkscape (http://www.inkscape.org/) -->

<svg
   xmlns:dc="http://purl.org/dc/elements/1.1/"
   xmlns:cc="http://creativecommons.org/ns#"
   xmlns:rdf="http://www.w3.org/1999/02/22-rdf-syntax-ns#"
   xmlns:svg="http://www.w3.org/2000/svg"
   xmlns="http://www.w3.org/2000/svg"
   xmlns:xlink="http://www.w3.org/1999/xlink"
   xmlns:sodipodi="http://sodipodi.sourceforge.net/DTD/sodipodi-0.dtd"
   xmlns:inkscape="http://www.inkscape.org/namespaces/inkscape"
   width="210mm"
   height="297mm"
   viewBox="0 0 210 297"
   version="1.1"
   id="svg8"
   inkscape:version="0.92.3 (2405546, 2018-03-11)"
   sodipodi:docname="explosion.svg">
  <defs
     id="defs2" />
  <sodipodi:namedview
     id="base"
     pagecolor="#ffffff"
     bordercolor="#666666"
     borderopacity="1.0"
     inkscape:pageopacity="0.0"
     inkscape:pageshadow="2"
     inkscape:zoom="0.35"
     inkscape:cx="350"
     inkscape:cy="560"
     inkscape:document-units="mm"
     inkscape:current-layer="layer1"
     showgrid="false"
     inkscape:window-width="1235"
     inkscape:window-height="785"
     inkscape:window-x="32"
     inkscape:window-y="32"
     inkscape:window-maximized="0" />
  <metadata
     id="metadata5">
    <rdf:RDF>
      <cc:Work
         rdf:about="">
        <dc:format>image/svg+xml</dc:format>
        <dc:type
           rdf:resource="http://purl.org/dc/dcmitype/StillImage" />
        <dc:title></dc:title>
      </cc:Work>
    </rdf:RDF>
  </metadata>
  <g
     inkscape:label="Ebene 1"
     inkscape:groupmode="layer"
     id="layer1">
    <image
       sodipodi:absref="C:\Users\roman\Desktop\data\explosion.png"
       y="-3.9068468"
       x="-1.3418139"
       id="image18"
       xlink:href="file:///C:/Users/roman/Desktop/data/explosion.png"
       style="image-rendering:optimizeQuality"
       preserveAspectRatio="none"
       height="226.86131"
       width="216.61815" />
    <g
       id="g21">
      <path
         style="fill:#f2a3a1;stroke-width:1.71244466"
         d="m 106.57316,209.34097 c -6.45319,-12.07697 -13.2611,-22.39624 -14.775399,-22.39624 -0.717777,0 -2.598501,3.24088 -4.179387,7.20195 -4.245787,10.63826 -6.36873,9.22162 -7.883182,-5.26043 -0.25078,-2.3981 -1.238992,-4.64468 -2.196025,-4.99237 -0.957032,-0.34771 -6.055716,3.54265 -11.330407,8.64523 -5.274693,5.1026 -9.836181,8.46216 -10.13664,7.46572 -0.300459,-0.99644 1.240965,-6.27925 3.425384,-11.73957 5.121679,-12.80246 6.630016,-20.44036 4.344886,-22.00161 -1.006515,-0.68766 -9.012417,6.68947 -18.376476,16.93322 -22.252684,24.3432 -23.516646,24.15704 -11.755279,-1.73115 6.152965,-13.54341 6.944774,-16.38797 4.813426,-17.2921 -2.38891,-1.0134 -14.878647,0.0211 -28.8720966,2.39143 -9.71869737,1.64623 -7.5993804,-3.0673 4.4849706,-9.97494 11.58028,-6.6195 13.202338,-9.25608 5.694454,-9.25608 -6.771629,0 -6.114546,-2.904 1.221531,-5.39859 11.388383,-3.87256 11.278061,-3.76017 6.107654,-6.22229 l -4.886123,-2.32676 4.478946,-1.32356 c 5.809921,-1.71687 5.675381,-3.72082 -0.407177,-6.06485 -5.390212,-2.07722 -6.594397,-5.67125 -1.900159,-5.67125 5.507443,0 5.185747,-2.3471 -0.958736,-6.99498 -4.799477,-3.63048 -5.475983,-4.75095 -3.175023,-5.25867 1.608186,-0.35486 5.198917,0.2315 7.979403,1.30301 11.621344,4.4785 12.151279,1.8229 2.126285,-10.655201 -8.806494,-10.961436 -9.220957,-13.332908 -2.035885,-11.648902 8.23256,1.92951 8.322886,1.918042 8.933486,-1.134252 0.316927,-1.584263 -3.179305,-9.087677 -7.769403,-16.674253 -4.590098,-7.586577 -8.086114,-14.654441 -7.768925,-15.706368 0.317188,-1.051925 6.055704,2.486409 12.752255,7.862963 20.924126,16.799643 24.113955,17.081362 14.618613,1.29108 C 43.163066,52.75829 42.98247,50.56728 48.47509,54.545758 c 2.317195,1.678417 4.52665,2.705029 4.909898,2.28136 0.383248,-0.423671 -1.23017,-4.581691 -3.585374,-9.240048 -5.15911,-10.204204 -4.023516,-12.602803 2.630298,-5.555704 l 4.876511,5.164746 -2.633617,-8.54444 c -1.44849,-4.699441 -2.279014,-8.936441 -1.845608,-9.415558 0.433404,-0.479115 3.175335,3.241589 6.09318,8.268231 2.917845,5.026641 5.544207,8.875104 5.836361,8.552136 0.292154,-0.322966 -0.87337,-6.623567 -2.590053,-14.001332 -4.338516,-18.645591 -1.596029,-20.037023 5.75388,-2.919297 3.251855,7.573473 6.926378,13.769952 8.165608,13.769952 1.295317,0 2.983878,-3.252949 3.972082,-7.652068 3.6539,-16.265811 4.156425,-17.82518 5.735802,-17.798562 1.933505,0.03259 5.322719,14.630691 5.544127,23.879805 0.172412,7.202251 3.222671,11.232218 7.218588,9.537116 2.260687,-0.959 9.224847,-17.83407 9.224847,-22.353007 0,-0.906523 0.86003,-3.734889 1.91119,-6.285255 2.96221,-7.187035 4.55029,-2.083581 4.5787,14.714131 0.0137,8.111266 0.75462,15.246286 1.64645,15.855601 1.6395,1.120133 8.13899,-5.606691 12.60764,-13.048612 3.89832,-6.492106 6.94405,-5.110109 6.94405,3.150851 0,3.961071 0.66014,7.201947 1.46698,7.201947 0.80684,0 5.38758,-2.017633 10.17943,-4.483628 11.59322,-5.966144 13.24568,-5.900025 10.80975,0.432533 -1.04754,2.723236 -3.35562,6.771137 -5.12908,8.995334 -1.77345,2.224197 -2.89846,4.404372 -2.50002,4.844832 0.39843,0.44046 6.01342,-0.104176 12.47775,-1.210282 6.46433,-1.106116 12.30945,-1.396337 12.98916,-0.644938 0.67971,0.751401 -1.13146,3.704455 -4.02484,6.562343 -3.11307,3.074895 -4.88989,6.264329 -4.3524,7.812699 0.49954,1.439095 0.0596,4.369678 -0.97783,6.512407 -1.03734,2.142728 -1.48751,4.336475 -1.00037,4.874995 0.48715,0.538519 7.06685,-1.151312 14.62157,-3.755179 15.92842,-5.490008 15.70209,-5.455451 15.70209,-2.39753 0,1.285227 -4.36235,5.409015 -9.6941,9.163973 -17.30152,12.184832 -16.95356,14.28269 4.26119,25.69156 8.44034,4.53903 15.07358,9.16815 14.74052,10.28693 -0.33305,1.11878 -4.94549,2.5009 -10.24988,3.07137 -12.86386,1.38347 -15.34481,2.81091 -15.34481,8.82877 0,4.77253 4.17296,9.97384 18.04874,22.49651 5.52961,4.99039 1.74471,5.49381 -14.10108,1.87557 -14.57032,-3.327 -16.91794,-2.26215 -13.7358,6.23043 1.14568,3.05765 1.64988,6.03823 1.12044,6.62351 -0.52943,0.58528 -4.41835,-1.46625 -8.64199,-4.55895 -11.87159,-8.69276 -12.47716,-7.79126 -6.94062,10.33244 1.89074,6.18932 3.00038,11.73675 2.46587,12.32765 -0.83477,0.9228 -5.77382,-4.80012 -9.47963,-10.98412 -2.47755,-4.13439 -3.19905,1.00368 -1.34236,9.55952 3.05723,14.08807 1.15527,14.65688 -5.43678,1.62595 -10.02899,-19.82493 -14.96061,-20.64671 -13.01802,-2.16925 1.30287,12.39268 -1.55503,14.35172 -7.99357,5.4794 -2.62942,-3.62331 -5.37328,-6.58787 -6.09748,-6.58787 -0.72419,0 -0.92194,6.36724 -0.43942,14.14941 1.0914,17.60266 -1.00919,19.98225 -7.2799,8.24683 z"
         id="path29"
         inkscape:connector-curvature="0" />
      <path
         style="fill:#fdea03;stroke-width:1.71244466"
         d="M 103.41054,199.0653 C 94.436888,182.47999 89.950081,180.17125 86.31875,190.27048 l -1.717442,4.77644 -1.99087,-6.3017 c -2.614819,-8.27669 -6.315012,-8.77114 -14.071561,-1.88039 -6.971723,6.19353 -7.581383,5.54877 -3.918021,-4.14361 3.152592,-8.341 3.113578,-16.32624 -0.09414,-19.26919 -2.177195,-1.99748 -4.481133,-0.19 -16.237067,12.73832 -7.53492,8.28635 -14.136143,14.58378 -14.669384,13.9943 -0.533241,-0.58948 1.276549,-5.72475 4.021755,-11.41173 2.7452,-5.68698 4.991278,-11.95674 4.991278,-13.93281 0,-3.4008 -0.827079,-3.54503 -15.472725,-2.69817 -8.509998,0.49208 -15.472725,0.59499 -15.472725,0.22869 0,-0.3663 3.696669,-3.18048 8.21482,-6.25373 6.197058,-4.21526 8.097299,-6.51165 7.736363,-9.34922 -0.367652,-2.89037 0.74741,-4.15461 4.814843,-5.459 4.795115,-1.53775 7.603035,-6.57806 3.664593,-6.57806 -0.89579,0 -1.628708,-1.8635 -1.628708,-4.14112 0,-2.27761 -0.879502,-5.11338 -1.95445,-6.3017 -1.520127,-1.68046 -1.480891,-2.16059 0.176565,-2.16059 1.443487,0 1.810503,-1.4117 1.137579,-4.37562 -0.802962,-3.53668 -0.314796,-4.48601 2.546101,-4.95134 5.436153,-0.8842 5.182327,-3.68836 -1.064089,-11.75556 -6.780439,-8.75688 -6.930204,-9.525748 -1.855487,-9.525748 2.129789,0 4.768563,-1.193773 5.863943,-2.652828 2.015814,-2.685083 -0.337048,-8.8461 -8.785156,-23.004106 -1.624961,-2.723236 -2.451826,-4.951338 -1.837479,-4.951338 0.614345,0 5.738913,3.645986 11.387925,8.10219 13.931153,10.98954 21.053265,10.451229 15.429008,-1.166173 -1.406023,-2.904263 -1.162271,-4.111278 1.21897,-6.036126 1.637031,-1.323277 2.447424,-2.990749 1.800871,-3.705492 -0.646552,-0.714742 1.186898,-2.710112 4.074331,-4.434153 4.689518,-2.800038 5.201263,-3.878168 4.794397,-10.100718 l -0.455485,-6.966097 4.101331,5.40146 c 3.377696,4.44843 4.607024,5.049517 6.967425,3.40676 1.576352,-1.097085 3.627344,-4.994072 4.55776,-8.659971 2.465253,-9.713249 4.60824,-8.742581 6.457654,2.924998 1.900963,11.992797 3.956267,14.90569 9.443123,13.383334 2.815174,-0.781085 4.996614,-3.714081 7.448434,-10.014603 1.90701,-4.900511 3.46729,-9.772591 3.46729,-10.826848 0,-1.054259 0.69944,-1.916833 1.5543,-1.916833 0.85486,0 1.771,5.460603 2.03588,12.134671 0.59195,14.915345 3.5485,16.707626 11.39629,6.908507 6.286,-7.849012 7.81544,-8.052204 7.81544,-1.038312 0,5.855842 1.81476,6.603227 8.85187,3.645537 3.77014,-1.584588 4.1778,-1.331429 4.1778,2.594471 0,2.392717 -0.73292,4.851135 -1.62871,5.463155 -3.7043,2.530845 -1.417,4.934397 3.80437,3.997721 8.96504,-1.608266 10.67809,1.15947 4.60149,7.434546 -5.18338,5.352694 -4.72243,8.58654 0.97378,6.831678 1.55962,-0.480478 4.5299,-1.413439 6.60063,-2.073249 3.56088,-1.134626 3.70555,-0.849591 2.66897,5.258598 -0.60278,3.552036 -0.44885,6.458248 0.34206,6.458248 0.79092,0 6.36939,-1.51164 12.39657,-3.3592 6.0272,-1.847559 10.95853,-2.775268 10.95853,-2.061575 0,0.713693 -3.29813,3.60223 -7.32918,6.41897 -12.10788,8.460512 -9.49571,14.908926 10.5866,26.134136 l 10.5866,5.91749 -9.67363,2.19808 c -16.34618,3.71424 -18.07654,11.11025 -5.77971,24.70402 4.48961,4.96312 7.88447,9.33169 7.54414,9.70792 -0.34033,0.37623 -3.83043,-0.13446 -7.75574,-1.13488 -14.58797,-3.71789 -21.00058,-1.54847 -18.31256,6.19523 1.23112,3.54661 0.14789,3.4114 -7.10699,-0.88711 -7.90117,-4.68141 -11.00452,-2.11384 -8.60839,7.12219 1.82647,7.04019 1.12561,8.72634 -2.31507,5.56965 -3.09654,-2.84095 -5.79287,-0.9803 -5.87737,4.05579 -0.0597,3.55883 -0.54067,3.3311 -4.91521,-2.32738 -6.7482,-8.72878 -10.30681,-6.19786 -10.97978,7.80895 -0.26865,5.59154 -0.76196,10.16643 -1.09625,10.16643 -0.33428,0 -2.86644,-2.49688 -5.62703,-5.54862 -6.45638,-7.13734 -9.27597,-6.1201 -8.41963,3.03761 1.80467,19.29909 -0.0498,21.14356 -7.46985,7.42963 z"
         id="path27"
         inkscape:connector-curvature="0" />
      <path
         style="fill:#f85a0d;stroke-width:1.71244466"
         d="M 103.41054,199.0653 C 94.436888,182.47999 89.950081,180.17125 86.31875,190.27048 l -1.717442,4.77644 -1.99087,-6.3017 c -2.614819,-8.27669 -6.315012,-8.77114 -14.071561,-1.88039 -6.971723,6.19353 -7.581383,5.54877 -3.918021,-4.14361 3.226283,-8.53596 3.08889,-15.40964 -0.393027,-19.66291 -2.711108,-3.3117 -2.66727,-3.61549 0.994789,-6.8936 7.924688,-7.09382 13.472869,-2.91344 10.143928,7.64313 -0.991367,3.14377 -1.531989,6.01498 -1.201384,6.38045 0.330605,0.36547 2.870003,-0.77501 5.643105,-2.53441 4.883273,-3.09821 5.115408,-3.08795 7.373537,0.32594 2.051467,3.10144 2.668182,3.21599 5.13414,0.95357 2.497438,-2.29129 3.270357,-1.97296 7.098256,2.92346 2.36261,3.02211 5.16869,7.04552 6.23575,8.94095 1.69319,3.0076 1.9523,2.48586 2.03589,-4.0996 0.11054,-8.70847 2.33268,-11.13789 6.43431,-7.03447 3.91052,3.91223 5.06242,3.62099 5.06242,-1.27998 0,-2.2864 1.04031,-5.72983 2.3118,-7.65207 2.26971,-3.43133 2.38455,-3.41943 6.30668,0.65379 3.52849,3.66442 4.11584,3.80026 5.03111,1.16356 0.64059,-1.84543 2.03799,-2.56026 3.65993,-1.87222 2.07564,0.8805 2.46437,0.19165 1.86096,-3.29777 -1.15512,-6.67995 1.10925,-9.68881 5.18834,-6.89416 4.59215,3.14615 6.07049,2.82647 7.10242,-1.53583 0.81945,-3.4641 1.63288,-3.67804 9.55503,-2.51312 l 8.65932,1.27333 -5.43114,-6.28213 c -7.46043,-8.62938 -6.65404,-13.76877 2.76218,-17.6042 l 7.10328,-2.89332 -5.28377,-2.41944 c -6.31901,-2.89348 -14.62327,-10.32218 -14.62327,-13.08146 0,-1.08599 1.53705,-3.78319 3.41566,-5.993792 l 3.41566,-4.019274 -6.67308,0.989446 c -6.10468,0.90517 -6.67308,0.643364 -6.67308,-3.073654 0,-3.488801 -0.64392,-3.920736 -4.55565,-3.055876 -2.50561,0.553976 -5.62051,0.234746 -6.922,-0.709397 -2.0248,-1.468844 -1.95495,-2.065192 0.48388,-4.131508 3.96549,-3.359789 3.56287,-4.718632 -1.3981,-4.718632 -3.67359,0 -4.11532,-0.585852 -3.26516,-4.330415 0.83973,-3.698657 0.49504,-4.189306 -2.36272,-3.363163 -2.45338,0.709236 -3.58727,-0.05312 -4.25076,-2.857888 -0.89974,-3.803502 -0.93247,-3.799455 -5.78648,0.715703 -5.79776,5.393026 -8.93767,3.728006 -9.71632,-5.152336 l -0.50132,-5.717497 -3.60967,6.751825 c -1.98531,3.713503 -4.6922,6.751824 -6.015296,6.751824 -2.930558,0 -7.476468,-6.812076 -7.476468,-11.203538 0,-1.760195 -0.732918,-3.200354 -1.628708,-3.200354 -0.895789,0 -1.628708,1.116121 -1.628708,2.480269 0,1.36415 -1.113125,3.501516 -2.473613,4.749705 -2.024308,1.857218 -3.059736,1.683057 -5.700477,-0.958834 -3.110904,-3.11226 -3.226865,-3.103247 -3.226865,0.250813 0,1.913497 -2.259757,5.671124 -5.021684,8.350284 -4.238587,4.111566 -4.853371,5.718345 -3.942361,10.303616 1.352674,6.808234 -0.875712,7.031429 -9.766096,0.97817 -8.990573,-6.121476 -9.689968,-5.699241 -5.141313,3.103884 4.329928,8.379819 4.114174,12.153289 -0.694889,12.153289 -4.100994,0 -3.945573,1.09851 1.091739,7.71641 l 4.21343,5.5355 -3.473354,2.89628 c -2.952956,2.46234 -3.309676,4.02783 -2.380894,10.44871 0.87553,6.05273 0.566866,7.77539 -1.554429,8.67526 -1.455791,0.61756 -2.646891,2.63578 -2.646891,4.48494 0,1.937 -2.243675,4.71725 -5.293301,6.55919 l -5.2933,3.19709 9.772247,0.54898 c 5.374736,0.30194 10.33892,1.17144 11.031519,1.93223 2.444076,2.6847 -6.702876,20.97008 -14.916452,29.81899 -4.540422,4.89164 -8.685983,8.4178 -9.212359,7.8359 -0.526376,-0.5819 1.289031,-5.71096 4.034238,-11.39794 2.745206,-5.68698 4.991284,-11.95674 4.991284,-13.93281 0,-3.4008 -0.827079,-3.54503 -15.472725,-2.69817 -8.509998,0.49208 -15.472725,0.59499 -15.472725,0.22869 0,-0.3663 3.696669,-3.18048 8.21482,-6.25373 6.197058,-4.21526 8.097299,-6.51165 7.736363,-9.34922 -0.367652,-2.89037 0.74741,-4.15461 4.814843,-5.459 4.795115,-1.53775 7.603035,-6.57806 3.664593,-6.57806 -0.89579,0 -1.628708,-1.8635 -1.628708,-4.14112 0,-2.27761 -0.879502,-5.11338 -1.95445,-6.3017 -1.520127,-1.68046 -1.480891,-2.16059 0.176565,-2.16059 1.443487,0 1.810503,-1.4117 1.137579,-4.37562 -0.802962,-3.53668 -0.314796,-4.48601 2.546101,-4.95134 5.436153,-0.8842 5.182327,-3.68836 -1.064089,-11.75556 -6.780439,-8.75688 -6.930204,-9.525748 -1.855487,-9.525748 2.129789,0 4.768563,-1.193773 5.863943,-2.652828 2.015814,-2.685083 -0.337048,-8.8461 -8.785156,-23.004106 -1.624961,-2.723236 -2.451826,-4.951338 -1.837479,-4.951338 0.614345,0 5.738913,3.645986 11.387925,8.10219 13.931153,10.98954 21.053265,10.451229 15.429008,-1.166173 -1.406023,-2.904263 -1.162271,-4.111278 1.21897,-6.036126 1.637031,-1.323277 2.447424,-2.990749 1.800871,-3.705492 -0.646552,-0.714742 1.186898,-2.710112 4.074331,-4.434153 4.689518,-2.800038 5.201263,-3.878168 4.794397,-10.100718 l -0.455485,-6.966097 4.101331,5.40146 c 3.377696,4.44843 4.607024,5.049517 6.967425,3.40676 1.576352,-1.097085 3.627344,-4.994072 4.55776,-8.659971 2.465253,-9.713249 4.60824,-8.742581 6.457654,2.924998 1.900963,11.992797 3.956267,14.90569 9.443123,13.383334 2.815173,-0.781085 4.996613,-3.714081 7.448433,-10.014603 1.90701,-4.900511 3.46729,-9.772591 3.46729,-10.826848 0,-1.054259 0.69944,-1.916833 1.5543,-1.916833 0.85486,0 1.771,5.460603 2.03588,12.134671 0.59195,14.915345 3.5485,16.707626 11.39629,6.908507 6.286,-7.849012 7.81544,-8.052204 7.81544,-1.038312 0,5.855842 1.81476,6.603227 8.85187,3.645537 3.77014,-1.584588 4.1778,-1.331429 4.1778,2.594471 0,2.392717 -0.73292,4.851135 -1.62871,5.463155 -3.7043,2.530845 -1.417,4.934397 3.80437,3.997721 8.96504,-1.608266 10.67809,1.15947 4.60149,7.434546 -5.18338,5.352694 -4.72243,8.58654 0.97378,6.831678 1.55962,-0.480478 4.5299,-1.413439 6.60063,-2.073249 3.56088,-1.134626 3.70555,-0.849591 2.66897,5.258598 -0.60278,3.552036 -0.44885,6.458248 0.34206,6.458248 0.79092,0 6.36939,-1.51164 12.39657,-3.3592 6.0272,-1.847559 10.95853,-2.775268 10.95853,-2.061575 0,0.713693 -3.29813,3.60223 -7.32918,6.41897 -12.10788,8.460512 -9.49571,14.908926 10.5866,26.134136 l 10.5866,5.91749 -9.67363,2.19808 c -16.34618,3.71424 -18.07654,11.11025 -5.77971,24.70402 4.48961,4.96312 7.88447,9.33169 7.54414,9.70792 -0.34033,0.37623 -3.83043,-0.13446 -7.75574,-1.13488 -14.58797,-3.71789 -21.00058,-1.54847 -18.31256,6.19523 1.23112,3.54661 0.14789,3.4114 -7.10699,-0.88711 -7.90117,-4.68141 -11.00452,-2.11384 -8.60839,7.12219 1.82647,7.04019 1.12561,8.72634 -2.31507,5.56965 -3.09654,-2.84095 -5.79287,-0.9803 -5.87737,4.05579 -0.0597,3.55883 -0.54067,3.3311 -4.91521,-2.32738 -6.7482,-8.72878 -10.30681,-6.19786 -10.97978,7.80895 -0.26865,5.59154 -0.76196,10.16643 -1.09625,10.16643 -0.33428,0 -2.86644,-2.49688 -5.62703,-5.54862 -6.45638,-7.13734 -9.27597,-6.1201 -8.41963,3.03761 1.80467,19.29909 -0.0498,21.14356 -7.46985,7.42963 z"
         id="path25"
         inkscape:connector-curvature="0" />
      <path
         style="fill:#f21a0c;stroke-width:1.71244466"
         d="m 105.30175,200.04192 c -1.77134,-3.68948 -5.955913,-9.7516 -9.29906,-13.47137 -5.282381,-5.87745 -5.874247,-7.35693 -4.519258,-11.29669 0.857553,-2.49343 2.196654,-4.53351 2.975779,-4.53351 3.898935,0 16.579819,23.86601 16.579819,31.20398 0,6.65113 -1.93945,6.00803 -5.73728,-1.90241 z m 16.0754,-10.46306 c -0.52834,-1.52202 -3.07055,-3.97347 -5.64936,-5.44769 -3.65974,-2.09212 -4.68876,-3.92454 -4.68876,-8.34944 v -5.66908 l 3.76957,3.91483 c 5.75949,5.98142 7.63139,4.95431 7.63139,-4.18737 0,-8.48742 1.42954,-10.00565 4.97476,-5.28339 1.75684,2.34012 1.62126,3.74505 -0.79836,8.27315 -2.11378,3.95574 -2.63513,7.38614 -1.89753,12.48533 1.0134,7.00582 -1.34522,10.01517 -3.34171,4.26366 z M 82.182716,185.0326 c -2.202627,-6.45089 -4.743654,-6.62293 -12.448455,-0.84287 -3.260268,2.44584 -5.927759,3.81569 -5.927759,3.04414 0,-1.88241 17.279555,-18.294 19.261521,-18.294 2.241472,0 3.540389,4.63904 3.540389,12.6444 0,8.74098 -2.068288,10.35251 -4.425696,3.44833 z m -45.99645,1.67958 c -0.03728,-0.62302 1.831029,-5.7178 4.151819,-11.32174 5.93928,-14.34136 4.26405,-16.29342 -12.738883,-14.84396 -6.959666,0.5933 -12.653937,0.71978 -12.653937,0.28107 0,-2.44884 10.092468,-5.89351 17.243631,-5.88544 4.557155,0.005 11.261436,-0.54641 14.898401,-1.22567 8.866465,-1.65597 9.728729,0.69095 4.302838,11.71154 -4.216938,8.56507 -15.056883,23.74014 -15.203869,21.2842 z M 137.21288,173.77399 c -2.67062,-7.76499 -2.09151,-9.62033 1.69595,-5.43341 2.6988,2.98344 3.07408,4.52309 1.74323,7.15193 -1.55706,3.07569 -1.83869,2.93497 -3.43918,-1.71852 z m 8.4407,-3.48376 c -2.2249,-3.09886 -5.81263,-15.7853 -4.78527,-16.92101 0.46045,-0.50902 2.29086,-0.0655 4.06756,0.9857 2.31885,1.3719 3.39558,4.20733 3.81582,10.04855 0.59791,8.31051 -0.22935,9.88239 -3.09811,5.88676 z m -78.429088,-5.19615 c -2.070544,-5.17663 -2.00104,-5.93403 0.748494,-8.15658 3.054026,-2.46869 5.95404,-2.52231 5.727916,-0.10591 -0.06718,0.71795 -0.122153,2.77094 -0.122153,4.5622 0,1.79127 -0.916148,4.64059 -2.035885,6.33183 -1.83612,2.77327 -2.259846,2.51506 -4.318372,-2.63154 z m 90.639888,-5.36386 c -2.46342,-2.03176 -4.47894,-5.35365 -4.47894,-7.38198 0,-3.27562 0.74329,-3.57765 6.64934,-2.70193 7.05539,1.04613 10.1621,3.05363 6.7875,4.38596 -1.11974,0.44208 -2.03589,2.76181 -2.03589,5.15496 0,5.26159 -1.09661,5.34761 -6.92201,0.54299 z m 25.25954,-4.9236 c -4.66736,-1.49724 -23.22365,-19.86483 -23.22365,-22.98749 0,-3.4185 5.38902,-6.09094 12.28249,-6.09094 5.03373,0 5.80599,0.49938 4.87253,3.15085 -2.48203,7.05003 -1.37133,10.72979 5.85432,19.39546 6.79127,8.14472 6.80776,8.64723 0.21431,6.53212 z M 29.603636,146.46809 c 0,-2.91615 6.141491,-5.26438 10.864956,-4.15428 2.3937,0.56257 1.954865,1.30146 -2.233358,3.76042 -6.405783,3.76092 -8.631598,3.86249 -8.631598,0.39386 z m 7.278069,-14.4382 c -0.41978,-1.4854 -1.097688,-3.89011 -1.506459,-5.3438 -0.408772,-1.45369 -0.111111,-3.07493 0.661451,-3.60277 0.772569,-0.52783 1.021538,-2.57932 0.553264,-4.55887 -0.641071,-2.71001 -0.04901,-3.59918 2.396537,-3.59918 4.656574,0 7.851949,4.61416 4.252723,6.14098 -2.526989,1.07197 -2.532076,1.32718 -0.06699,3.36112 3.550839,2.92978 1.82705,10.30325 -2.408715,10.30325 -1.715217,0 -3.462031,-1.21533 -3.881812,-2.70073 z M 169.26534,116.25042 c -14.34403,-8.11749 -15.87693,-11.78793 -7.32919,-17.549265 6.60147,-4.449504 7.73637,-4.465838 7.73637,-0.111342 0,4.429087 10.13232,13.701547 19.11708,17.494767 8.04854,3.39794 9.00674,6.04263 2.18933,6.04263 -2.61411,0 -5.72901,0.28496 -6.92201,0.63323 -1.19301,0.34828 -7.84921,-2.58123 -14.79158,-6.51002 z M 38.031849,103.22211 c -5.331954,-7.881732 -6.111062,-9.902681 -3.817637,-9.902681 7.881514,0 8.72276,-8.459909 1.961575,-19.726385 -5.299817,-8.831333 -5.242604,-11.553325 0.130736,-6.219592 3.771099,3.743305 15.542582,22.247954 17.21189,27.056908 0.863211,2.486742 0.167384,2.842212 -4.18216,2.136506 -2.869712,-0.465606 -5.529618,-0.288557 -5.910903,0.393444 -0.381286,0.682001 1.90685,4.59801 5.084748,8.70224 l 5.777984,7.46223 h -4.778557 c -3.894373,0 -6.01811,-1.83231 -11.477676,-9.90267 z M 150.88698,90.221688 c 1.0236,-4.508517 0.91118,-4.573925 -5.9655,-3.47085 l -7.00877,1.124262 4.59503,-2.804035 c 2.52727,-1.542219 7.83656,-3.882483 11.79842,-5.200585 l 7.2034,-2.39655 -0.98652,4.345157 c -0.54259,2.389837 -0.15875,5.44776 0.85298,6.795384 1.47742,1.967945 0.5235,2.819494 -4.84641,4.326278 -6.65407,1.867121 -6.68093,1.854175 -5.64263,-2.719061 z M 58.693636,82.650271 c -3.528783,-3.182041 -3.604166,-3.570829 -0.916539,-4.727042 1.93976,-0.834483 3.70942,-0.119787 5.241503,2.116846 4.582882,6.690371 1.957168,8.27504 -4.324964,2.610196 z m 75.147304,-5.147296 c 0,-2.429715 11.86311,-11.190845 15.15309,-11.190845 3.77097,0 3.46665,2.258597 -0.90189,6.693711 -3.97876,4.03938 -14.2512,7.280975 -14.2512,4.497134 z M 59.996198,70.232492 c -3.319251,-4.054565 -3.427374,-5.720848 -0.371221,-5.720848 1.283319,0 2.816076,1.681496 3.406126,3.736659 1.469781,5.119277 0.207319,5.944661 -3.034905,1.984189 z m 52.671542,-5.720848 c 0,-5.740551 0.59615,-7.201947 2.93792,-7.201947 1.61585,0 5.46367,-2.887098 8.55071,-6.415775 l 5.6128,-6.415776 0.87106,5.065412 c 0.76234,4.433161 1.52467,5.008372 6.10766,4.608435 5.37291,-0.46887 6.38688,1.349913 4.22487,7.578255 -1.01019,2.910147 -8.70195,8.182855 -11.93706,8.182855 -0.94027,0 -1.70959,-2.430657 -1.70959,-5.401459 0,-7.05594 -1.89206,-6.819983 -7.21876,0.900243 -5.63853,8.172169 -7.43961,7.954227 -7.43961,-0.900243 z m -17.911042,0.91404 c -2.401632,-6.982996 -2.00522,-9.916473 1.340055,-9.916473 3.768161,0 9.163447,-6.299314 12.347777,-14.416749 4.15097,-10.581612 2.70539,-0.312164 -2.02611,14.393521 -4.77814,14.850625 -8.795175,18.274488 -11.661722,9.939701 z m -16.255634,-8.037563 -3.287426,-7.123523 4.068679,-4.497799 c 2.237774,-2.473791 4.06868,-6.10725 4.06868,-8.074354 0,-1.967105 0.711431,-4.062618 1.580959,-4.656694 2.427843,-1.658745 3.792542,7.146195 2.579839,16.644941 -2.206828,17.285445 -3.91593,18.747345 -9.010731,7.707429 z M 63.806502,60.91067 c 0,-0.990267 0.732918,-1.800486 1.628708,-1.800486 0.895789,0 1.628708,0.810219 1.628708,1.800486 0,0.990268 -0.732919,1.800487 -1.628708,1.800487 -0.89579,0 -1.628708,-0.810219 -1.628708,-1.800487 z m 4.903337,-0.877314 c -2.173605,-2.895263 -1.169246,-8.125119 1.560377,-8.125119 0.923905,0 1.679825,1.149064 1.679825,2.553474 0,1.404408 0.444874,3.835065 0.988608,5.40146 1.249959,3.60089 -1.568081,3.714301 -4.22881,0.170182 z"
         id="path23"
         inkscape:connector-curvature="0" />
    </g>
  </g>
</svg>
