<?xml version="1.0" standalone="no"?>
<!DOCTYPE svg PUBLIC "-//W3C//DTD SVG 20010904//EN"
 "http://www.w3.org/TR/2001/REC-SVG-20010904/DTD/svg10.dtd">
<svg version="1.0" xmlns="http://www.w3.org/2000/svg"
 width="194.000000pt" height="259.000000pt" viewBox="0 0 194.000000 259.000000"
 preserveAspectRatio="xMidYMid meet">
<metadata>
Created by potrace 1.14, written by Peter Selinger 2001-2017
</metadata>
<g transform="translate(0.000000,259.000000) scale(0.100000,-0.100000)"
fill="#000000" stroke="none">
<path d="M833 2425 c0 -38 2 -53 4 -32 2 20 2 52 0 70 -2 17 -4 1 -4 -38z"/>
<path d="M1083 2420 c0 -41 2 -58 4 -37 2 20 2 54 0 75 -2 20 -4 3 -4 -38z"/>
<path d="M707 2466 c-5 -12 4 -14 40 -13 27 1 48 7 51 15 6 18 -84 16 -91 -2z"/>
<path d="M1120 2465 c0 -11 12 -15 48 -15 37 0 49 4 49 15 0 11 -12 15 -49 15
-36 0 -48 -4 -48 -15z"/>
<path d="M707 2429 c7 -7 15 -10 18 -7 3 3 -2 9 -12 12 -14 6 -15 5 -6 -5z"/>
<path d="M656 2415 c-9 -26 -7 -32 5 -12 6 10 9 21 6 23 -2 3 -7 -2 -11 -11z"/>
<path d="M1188 2423 c6 -2 18 -2 25 0 6 3 1 5 -13 5 -14 0 -19 -2 -12 -5z"/>
<path d="M1121 2404 c0 -11 3 -14 6 -6 3 7 2 16 -1 19 -3 4 -6 -2 -5 -13z"/>
<path d="M1225 2380 c0 -17 5 -30 12 -30 6 0 10 -8 9 -17 -2 -10 5 -27 15 -37
18 -19 18 -17 -1 39 -24 71 -36 86 -35 45z"/>
<path d="M676 2374 c-9 -24 -2 -26 12 -4 7 11 8 20 3 20 -5 0 -12 -7 -15 -16z"/>
<path d="M770 2195 c-3 -104 -4 -192 -2 -194 10 -17 12 31 10 195 l-3 189 -5
-190z"/>
<path d="M793 2315 c0 -38 2 -53 4 -32 2 20 2 52 0 70 -2 17 -4 1 -4 -38z"/>
<path d="M1122 2313 l2 -68 5 60 c5 55 6 52 11 -45 l6 -105 2 113 c2 94 0 112
-13 112 -12 0 -15 -13 -13 -67z"/>
<path d="M615 2310 c-10 -22 -16 -43 -13 -46 3 -2 13 14 22 37 22 54 15 61 -9
9z"/>
<path d="M1286 2332 c3 -13 17 -54 30 -90 18 -49 23 -57 20 -32 -2 19 -16 60
-30 90 -14 30 -23 44 -20 32z"/>
<path d="M730 2249 c-25 -73 -25 -74 -65 -80 l-40 -6 38 -2 c42 -1 48 -11 15
-26 -17 -7 -25 -24 -34 -65 -20 -92 -39 -135 -60 -133 -18 1 -18 1 -1 -11 16
-13 16 -14 -7 -29 -17 -11 -26 -29 -31 -59 -10 -64 -15 -78 -30 -78 -7 0 -15
-6 -18 -12 -2 -7 -7 -10 -11 -6 -4 3 -3 15 3 26 9 17 7 20 -14 25 -14 2 -28 0
-32 -6 -4 -6 -1 -7 7 -2 9 6 10 2 4 -16 -4 -13 -7 -30 -7 -36 0 -7 -12 -13
-27 -13 -17 0 -27 -5 -27 -15 0 -11 7 -13 26 -8 37 8 51 22 44 41 -5 15 -4 14
8 -1 14 -17 18 -17 101 12 47 17 89 31 93 31 3 0 4 -20 2 -44 -4 -39 -2 -45
17 -48 29 -5 57 2 51 13 -4 5 -2 9 4 9 5 0 12 -15 14 -32 4 -30 4 -30 2 2 -2
19 -5 45 -8 58 -4 15 -1 22 9 22 8 0 12 -4 9 -10 -3 -5 0 -10 7 -10 8 0 9 -3
3 -8 -6 -4 -8 -28 -4 -57 3 -27 7 -44 7 -37 1 6 10 12 20 12 16 1 16 2 -2 15
-15 11 -17 22 -12 63 6 48 5 49 -18 45 -33 -7 -29 16 8 50 30 28 37 32 35 20
-3 -19 2 -33 12 -33 6 0 9 7 6 15 -4 8 -2 17 3 20 6 4 10 -1 10 -9 0 -9 5 -16
11 -16 5 0 7 5 4 10 -4 6 7 10 24 10 l31 0 0 74 c0 49 -4 77 -12 82 -9 6 -5
10 12 15 l25 7 -25 1 c-20 1 -22 3 -10 11 12 7 11 9 -6 8 -16 -2 -19 -7 -16
-26 4 -22 2 -23 -19 -17 -33 10 -33 9 -19 60 7 25 10 48 7 51 -11 12 -27 -73
-27 -148 0 -45 -5 -80 -11 -84 -8 -4 -10 11 -7 50 1 31 0 56 -4 56 -4 0 -9
-28 -11 -62 l-3 -63 -2 68 c-3 88 -21 79 -24 -11 -2 -63 -2 -64 -5 -14 -4 51
-11 59 -45 53 -5 0 -8 4 -8 10 0 7 10 9 25 5 14 -4 25 -2 25 4 0 8 -37 15 -62
11 -5 0 -8 4 -8 9 0 6 10 8 23 5 46 -11 52 5 55 142 5 188 2 201 -28 112z
m107 -341 c-2 -18 -4 -6 -4 27 0 33 2 48 4 33 2 -15 2 -42 0 -60z m-145 -18
c-4 -25 -1 -30 17 -30 19 0 21 -5 21 -70 0 -68 -1 -70 -25 -70 -23 0 -25 3
-26 53 0 28 -2 63 -4 77 -4 30 4 70 14 70 4 0 6 -13 3 -30z"/>
<path d="M1160 2281 c0 -83 41 -145 81 -120 11 7 9 9 -7 9 -16 0 -25 15 -47
78 l-26 77 -1 -44z"/>
<path d="M1198 2283 c7 -3 16 -2 19 1 4 3 -2 6 -13 5 -11 0 -14 -3 -6 -6z"/>
<path d="M616 2235 c-3 -8 -1 -15 4 -15 6 0 10 7 10 15 0 8 -2 15 -4 15 -2 0
-6 -7 -10 -15z"/>
<path d="M567 2183 c-7 -39 -1 -40 11 -4 6 17 7 31 3 31 -5 0 -11 -12 -14 -27z"/>
<path d="M1160 2181 c0 -11 4 -22 9 -25 4 -3 6 6 3 19 -5 30 -12 33 -12 6z"/>
<path d="M794 2085 c0 -49 1 -71 3 -48 2 23 2 64 0 90 -2 26 -3 8 -3 -42z"/>
<path d="M1282 2153 c6 -7 16 -13 22 -13 6 0 5 4 -3 9 -11 7 -11 9 0 14 8 3 4
4 -8 4 -17 -1 -19 -4 -11 -14z"/>
<path d="M540 2055 c-19 -46 -37 -79 -41 -73 -4 7 -9 7 -13 0 -3 -5 1 -13 9
-16 9 -3 20 3 27 14 7 11 19 20 26 20 9 0 11 7 7 19 -4 12 0 23 10 29 12 6 15
20 13 49 l-3 41 -35 -83z"/>
<path d="M1167 2133 c-12 -11 -8 -88 5 -101 17 -17 64 -15 82 4 36 35 10 104
-39 104 -19 0 -22 -4 -19 -22 l5 -23 -10 23 c-11 24 -14 26 -24 15z"/>
<path d="M1338 2090 c2 -28 8 -50 13 -50 5 0 9 -7 9 -14 0 -8 11 -26 24 -40
l23 -26 -1 29 c-1 16 -5 29 -10 28 -4 -1 -17 23 -27 53 -26 73 -35 79 -31 20z"/>
<path d="M1360 2131 c0 -6 4 -13 10 -16 6 -3 7 1 4 9 -7 18 -14 21 -14 7z"/>
<path d="M1060 2106 c0 -2 5 -17 11 -33 19 -49 22 -176 5 -217 -8 -20 -11 -36
-6 -36 5 0 11 8 13 18 4 13 5 11 6 -5 1 -17 7 -23 24 -23 17 0 19 2 7 10 -8 5
-11 12 -7 16 4 4 18 -4 31 -18 20 -19 25 -33 22 -65 -3 -41 17 -87 27 -61 4
10 6 10 6 1 1 -7 6 -13 12 -13 5 0 7 5 3 12 -5 7 -2 9 9 5 19 -7 27 11 16 38
-7 20 -8 19 -8 -1 -1 -17 -6 -20 -27 -16 -25 5 -25 6 -22 77 3 62 1 72 -12 65
-8 -5 -23 -4 -32 1 -10 6 -23 7 -28 4 -6 -4 -10 15 -10 49 0 44 4 55 18 59 16
4 16 5 0 6 -10 0 -18 4 -19 9 -7 63 -19 111 -30 117 -5 4 -9 4 -9 1z"/>
<path d="M1113 2065 c0 -8 4 -12 9 -9 5 3 6 10 3 15 -9 13 -12 11 -12 -6z"/>
<path d="M978 2043 c7 -3 16 -2 19 1 4 3 -2 6 -13 5 -11 0 -14 -3 -6 -6z"/>
<path d="M1028 2033 c7 -3 16 -2 19 1 4 3 -2 6 -13 5 -11 0 -14 -3 -6 -6z"/>
<path d="M1117 2033 c-4 -3 -7 -14 -7 -24 0 -12 6 -16 20 -12 24 6 27 23 4 23
-8 0 -12 5 -9 10 7 11 2 13 -8 3z"/>
<path d="M1420 1980 c0 -14 5 -18 17 -13 11 4 13 8 5 11 -7 2 -10 8 -6 13 3 5
0 9 -5 9 -6 0 -11 -9 -11 -20z"/>
<path d="M1142 1970 c0 -14 2 -19 5 -12 2 6 2 18 0 25 -3 6 -5 1 -5 -13z"/>
<path d="M1210 1975 c0 -8 7 -15 15 -15 9 0 12 6 9 15 -4 8 -10 15 -15 15 -5
0 -9 -7 -9 -15z"/>
<path d="M550 1976 c0 -2 7 -9 15 -16 12 -10 15 -10 15 4 0 9 -7 16 -15 16 -8
0 -15 -2 -15 -4z"/>
<path d="M1330 1970 c8 -5 20 -10 25 -10 6 0 3 5 -5 10 -8 5 -19 10 -25 10 -5
0 -3 -5 5 -10z"/>
<path d="M514 1949 c-3 -6 -15 -7 -27 -4 -18 5 -19 4 -5 -4 24 -16 12 -51 -17
-51 -23 0 -45 -34 -31 -47 3 -4 6 -2 6 4 0 6 7 14 16 17 8 3 13 2 10 -2 -2 -4
0 -14 5 -22 7 -12 10 -11 15 7 3 12 15 25 26 29 16 5 18 8 7 15 -10 6 -11 9
-1 9 6 0 12 7 12 15 0 7 7 18 16 23 14 8 13 10 -5 15 -11 3 -24 1 -27 -4z"/>
<path d="M930 1954 c0 -3 7 -12 15 -20 16 -17 18 -14 9 10 -6 15 -24 23 -24
10z"/>
<path d="M1110 1915 c0 -19 5 -35 10 -35 6 0 10 16 10 35 0 19 -4 35 -10 35
-5 0 -10 -16 -10 -35z"/>
<path d="M1370 1939 c0 -6 7 -8 16 -5 8 3 13 2 10 -2 -5 -9 11 -39 17 -32 3 3
1 15 -4 28 -8 22 -39 31 -39 11z"/>
<path d="M1210 1898 c0 -21 2 -38 4 -38 9 0 12 50 5 62 -6 8 -9 -1 -9 -24z"/>
<path d="M936 1888 c-3 -13 -7 -44 -10 -70 -5 -43 -4 -48 14 -48 11 0 20 6 20
13 0 6 5 4 11 -6 6 -10 8 -21 5 -24 -3 -4 -6 -1 -6 6 0 22 -20 0 -21 -22 l0
-22 -9 23 c-14 33 -21 27 -16 -15 3 -21 5 -41 5 -44 1 -3 8 -6 16 -6 10 0 15
10 15 29 0 15 3 28 8 28 9 0 9 -136 -1 -146 -4 -4 -8 13 -8 37 -1 24 -3 36 -6
26 -5 -18 -5 -18 -19 0 -12 16 -13 15 -14 -19 0 -26 4 -36 13 -32 8 3 13 -5
15 -23 2 -26 1 -26 -13 -7 -13 17 -15 4 -17 -126 l-2 -145 -6 140 c-3 77 -7
112 -8 78 -2 -60 -3 -63 -27 -63 -14 0 -25 -6 -25 -14 0 -9 8 -12 25 -8 22 4
25 1 25 -22 0 -21 -5 -26 -24 -26 -16 0 -26 -7 -29 -22 -11 -40 -18 -12 -19
67 0 52 4 82 14 91 18 18 12 104 -8 104 -11 0 -14 -19 -14 -87 0 -47 -3 -83
-6 -80 -4 4 -7 21 -8 39 -1 19 -7 33 -16 35 -13 4 -13 3 0 -6 13 -10 13 -12 0
-21 -13 -9 -13 -10 0 -10 12 0 12 -2 1 -9 -9 -6 -10 -11 -2 -15 6 -4 11 -16
11 -27 0 -10 5 -19 10 -19 6 0 10 -30 10 -70 0 -43 -4 -70 -11 -70 -5 0 -8 -3
-6 -7 3 -5 -2 -14 -10 -22 -13 -12 -14 -11 -9 5 4 15 0 19 -19 20 -14 1 -23
-1 -20 -6 2 -4 -2 -16 -10 -26 -10 -15 -16 -16 -26 -7 -14 14 -4 47 12 37 7
-4 9 -3 5 4 -3 6 -31 18 -61 26 -58 17 -76 33 -54 47 12 7 11 9 -1 9 -13 0
-13 2 0 9 8 6 18 7 22 5 4 -3 8 -1 8 4 0 5 26 17 58 27 l57 19 -3 63 c-4 63
-4 64 21 58 17 -5 26 -2 30 9 4 9 2 16 -3 16 -6 0 -10 -5 -10 -11 0 -8 -4 -8
-14 0 -10 9 -16 8 -25 -3 -11 -13 -122 -56 -160 -61 -32 -5 -61 -18 -61 -27 0
-6 -9 -8 -20 -5 -11 3 -20 1 -20 -4 0 -5 12 -9 27 -9 39 0 22 -10 -25 -15 -34
-4 -40 -2 -35 11 5 13 7 13 14 2 6 -9 9 -7 9 8 0 22 -17 34 -50 34 -11 0 -40
11 -67 25 l-47 26 34 -3 c31 -3 35 0 33 18 -2 20 0 21 35 13 20 -5 56 -9 78
-9 33 0 43 4 47 19 3 11 2 23 -1 26 -4 4 -7 14 -7 22 0 9 -10 17 -25 20 -14 1
-20 0 -15 -4 9 -7 11 -16 6 -39 0 -4 -9 0 -18 7 -11 10 -14 10 -9 2 7 -12 -15
-17 -61 -16 -7 1 -10 -4 -6 -10 3 -6 1 -7 -5 -3 -16 10 -15 76 1 76 8 0 7 4
-3 10 -23 15 -25 13 -25 -22 0 -28 -3 -33 -22 -31 -28 3 -30 -13 -3 -22 11 -3
20 -10 20 -15 0 -11 -48 -22 -71 -15 -10 4 -29 -1 -41 -9 -21 -15 -21 -16 -3
-16 11 0 43 -11 70 -25 28 -14 40 -23 29 -20 -29 7 -40 -21 -14 -35 22 -12 47
-13 53 -2 2 4 2 1 0 -7 -3 -12 -1 -12 14 0 9 8 14 9 10 2 -4 -7 0 -16 10 -22
17 -10 17 -10 -2 -11 -19 -1 -19 -1 -1 -11 14 -9 20 -8 26 1 4 7 15 10 25 7 9
-4 14 -11 10 -16 -7 -12 33 -51 49 -47 6 2 8 1 4 -1 -17 -10 14 -40 52 -52 25
-7 40 -17 37 -24 -31 -79 -41 -97 -49 -97 -5 0 -7 4 -3 9 3 5 1 12 -5 16 -5 3
-10 11 -10 16 0 6 6 7 13 3 8 -5 8 -2 -2 9 -7 9 -21 16 -30 16 -13 -1 -13 -2
1 -6 14 -4 16 -8 8 -24 -7 -13 -7 -19 0 -19 5 0 10 -4 10 -9 0 -12 -52 -5 -60
9 -4 6 -20 12 -36 13 -16 1 -32 7 -36 12 -5 6 -8 5 -8 -2 0 -7 -5 -13 -11 -13
-5 0 -8 4 -4 9 3 5 1 13 -5 16 -6 4 -9 1 -8 -7 2 -7 -6 -13 -16 -13 -14 0 -20
7 -20 27 -1 14 1 25 5 23 8 -5 29 40 29 62 0 10 5 13 18 8 44 -18 73 -27 76
-24 2 2 6 14 10 26 6 18 0 23 -38 38 -24 9 -50 14 -57 10 -7 -5 -10 -4 -6 2 4
6 -10 15 -31 21 -21 6 -46 19 -57 27 -11 9 -14 14 -7 10 6 -3 12 -1 12 4 0 6
-5 11 -11 11 -6 0 -3 7 5 16 19 18 21 37 4 32 -6 -2 -20 -28 -30 -57 -10 -30
-21 -59 -25 -65 -5 -7 0 -4 9 7 11 11 22 15 30 10 13 -8 18 -9 41 -12 36 -4
39 -17 19 -79 -30 -89 -38 -102 -65 -95 -12 3 -34 7 -49 10 -15 3 -26 9 -23
13 3 5 1 11 -5 15 -10 6 -14 -7 -10 -34 1 -9 -5 -12 -19 -8 -12 3 -21 1 -21
-4 0 -5 1 -9 3 -10 44 -9 87 -9 87 0 0 6 8 3 18 -6 21 -21 10 -33 -24 -27 -17
3 -22 0 -18 -9 8 -21 -32 -52 -49 -39 -10 9 -14 8 -14 -3 0 -17 20 -19 47 -5
13 7 21 7 25 0 3 -5 21 -10 40 -10 21 0 35 -6 39 -16 9 -25 8 -27 -20 -20 -15
4 -23 3 -20 -3 3 -5 -1 -11 -9 -15 -8 -3 -17 -1 -20 4 -4 6 -20 8 -38 5 -38
-7 -48 -15 -19 -15 12 0 22 -4 22 -10 0 -5 -5 -10 -12 -10 -9 0 -9 -3 0 -12 9
-9 22 -9 57 0 25 7 55 12 68 12 17 0 19 2 8 9 -8 5 -21 7 -29 3 -9 -3 -13 -1
-9 5 9 14 47 24 47 12 0 -5 7 -9 16 -9 8 0 12 5 9 10 -4 6 12 10 39 10 35 0
46 -4 46 -16 0 -9 5 -12 12 -8 6 4 3 -5 -8 -20 -16 -22 -25 -26 -55 -23 -20 2
-40 6 -45 9 -5 3 -15 0 -22 -8 -11 -12 -2 -14 55 -15 37 -1 60 -3 51 -6 -10
-2 -18 -9 -18 -15 0 -6 -33 -8 -90 -5 -50 3 -93 1 -96 -4 -3 -6 -21 -7 -40 -3
-23 4 -34 2 -34 -5 0 -7 4 -10 9 -7 5 4 20 2 32 -3 15 -5 30 -4 42 3 13 8 20
8 26 -3 5 -7 11 -9 14 -4 6 9 30 10 75 5 6 -1 12 -6 12 -11 0 -8 -29 -14 -102
-23 -9 -1 -14 -6 -12 -10 3 -4 0 -8 -5 -8 -14 0 -13 -18 4 -55 l13 -30 -1 32
c-1 17 -5 29 -9 26 -5 -2 -8 1 -8 6 0 6 7 11 15 11 8 0 15 -6 15 -14 0 -24 17
-27 50 -9 29 17 32 17 41 1 8 -15 12 -15 37 -2 34 17 42 18 42 1 0 -7 -20 -18
-45 -25 -46 -12 -61 -36 -27 -45 15 -4 14 -6 -4 -12 -30 -9 -21 -45 9 -37 20
5 20 4 8 -11 -8 -11 -9 -17 -3 -17 6 0 9 -6 6 -14 -11 -30 14 -23 71 20 33 25
60 50 60 56 0 13 132 59 155 55 8 -1 -19 -13 -60 -26 -41 -14 -76 -25 -78 -26
-8 -6 12 -34 21 -28 6 4 7 1 3 -6 -5 -7 -15 -10 -23 -7 -8 3 -12 2 -9 -3 7
-11 -22 -23 -36 -15 -6 4 -8 -2 -3 -17 11 -38 11 -44 -3 -41 -8 1 -11 -2 -8
-7 3 -5 -1 -12 -10 -15 -8 -3 -12 -11 -8 -17 4 -8 3 -9 -4 -5 -7 4 -12 2 -12
-5 0 -9 -3 -9 -14 0 -9 7 -17 8 -20 3 -3 -6 2 -13 12 -17 16 -6 16 -7 -1 -16
-9 -6 -15 -14 -12 -20 4 -5 2 -9 -3 -9 -6 0 -13 -7 -16 -16 -5 -13 -1 -14 25
-9 22 5 29 4 25 -4 -4 -7 1 -11 13 -11 10 0 28 -3 38 -6 12 -5 15 -4 8 4 -5 5
-19 12 -30 15 -19 5 -19 5 3 12 26 9 29 23 6 32 -14 5 -13 9 7 25 13 11 18 17
12 13 -21 -11 -14 14 11 39 12 13 26 31 29 41 4 9 12 13 18 9 8 -4 9 -3 5 5
-11 17 11 40 33 34 13 -3 20 2 24 19 4 13 7 25 8 28 4 11 36 28 66 34 66 15
127 -42 122 -115 -4 -52 10 -58 36 -16 11 17 34 38 50 47 17 8 33 20 37 25 5
6 8 5 8 -2 0 -7 9 -13 21 -13 24 0 79 -54 80 -79 0 -10 2 -11 6 -3 2 6 8 10
11 8 4 -2 5 16 4 40 -4 38 0 48 26 74 37 37 99 42 139 10 14 -11 29 -17 34
-14 5 3 17 0 26 -6 17 -10 16 -10 -2 -8 -14 2 -21 -4 -23 -20 -3 -17 1 -22 19
-22 22 0 22 0 3 16 -19 15 -18 15 3 11 14 -3 21 0 20 7 -1 6 7 10 18 8 16 -2
17 -1 5 7 -9 5 -29 11 -45 13 -26 3 -69 27 -61 35 4 4 130 -38 140 -48 6 -6 6
-9 -1 -9 -6 0 -16 -14 -22 -31 -14 -42 -14 -49 3 -49 8 0 18 -5 22 -12 5 -8 1
-9 -12 -5 -17 6 -17 6 -3 -5 20 -17 41 -56 35 -67 -3 -4 0 -8 7 -9 7 0 22 -4
34 -7 18 -6 22 -2 28 24 4 17 11 31 16 31 6 0 7 5 4 10 -8 13 14 42 26 34 5
-3 9 0 9 5 0 6 -6 11 -14 11 -8 0 -18 4 -21 10 -8 13 51 2 88 -17 15 -7 27 -9
27 -4 0 5 -19 16 -42 24 -36 12 -43 18 -40 38 1 13 6 26 10 29 4 3 7 14 7 25
0 15 6 19 23 18 13 -2 21 1 17 7 -8 13 -42 13 -47 0 -2 -7 -26 -3 -64 11 -47
17 -60 26 -57 39 2 9 14 16 28 16 16 0 21 -4 17 -15 -5 -14 -3 -14 10 -3 13
10 17 10 21 0 4 -10 6 -10 6 0 1 14 41 17 41 2 0 -5 -7 -7 -15 -4 -8 4 -15 1
-15 -6 0 -6 4 -9 9 -6 5 4 12 0 14 -6 4 -10 6 -10 6 -1 1 9 8 10 27 2 15 -5
36 -7 47 -3 16 5 19 3 15 -12 -4 -14 1 -19 18 -20 13 -1 21 3 18 10 -2 6 0 17
5 24 7 12 13 11 37 -1 27 -14 74 -8 74 8 0 4 -4 3 -10 0 -5 -3 -10 -1 -10 4 0
6 -9 11 -20 11 -11 0 -20 -6 -20 -12 0 -10 -2 -10 -9 0 -4 8 -12 13 -17 12
-13 -2 -84 22 -84 29 0 3 -45 6 -100 6 -55 0 -100 3 -100 7 0 4 -31 7 -68 6
-38 0 -77 4 -88 11 -15 8 32 10 203 8 121 -1 219 1 216 6 -2 4 -29 7 -59 7
-59 0 -68 9 -29 30 19 10 30 11 50 2 29 -13 86 -5 64 9 -7 4 -19 3 -26 -3 -9
-7 -20 -6 -39 6 -17 12 -29 14 -37 8 -7 -5 -23 -9 -37 -8 -21 1 -25 6 -25 31
0 24 5 31 23 33 13 2 30 -2 38 -9 10 -8 18 -9 25 -2 13 13 91 4 101 -11 4 -6
10 -7 14 -4 10 11 -22 38 -45 38 -12 0 -21 5 -21 11 0 5 -10 3 -22 -5 -28 -20
-58 -21 -58 -2 0 10 -31 13 -152 14 -94 0 -143 -3 -128 -8 l25 -8 -27 -1 c-16
-1 -28 -5 -28 -10 0 -6 -9 -9 -20 -8 -14 1 -20 8 -20 24 l0 23 218 2 c119 1
230 2 245 1 16 -1 26 1 23 5 -3 3 -113 4 -245 3 -161 -2 -241 1 -246 8 -4 8
19 11 72 12 43 1 84 1 91 0 6 -1 12 2 12 7 0 5 23 7 50 4 29 -3 50 0 50 5 0 6
20 8 48 6 39 -4 51 -1 70 17 13 13 36 23 50 23 15 0 21 2 15 4 -7 3 -13 9 -13
15 0 6 7 8 15 4 8 -3 15 -1 15 5 0 6 6 6 18 0 13 -7 23 -6 30 1 17 17 15 23
-14 37 -22 9 -30 9 -43 -2 -9 -8 -31 -17 -48 -19 -26 -4 -30 -2 -22 9 7 7 17
13 23 13 6 0 22 12 35 25 16 18 30 24 44 19 11 -4 17 -2 14 3 -4 6 5 15 18 21
14 7 25 17 25 23 0 6 -6 9 -12 6 -7 -3 -89 -39 -183 -80 l-170 -74 -12 35
c-14 42 -13 46 27 62 16 7 27 16 24 21 -3 5 2 6 10 3 8 -3 20 -19 26 -35 24
-57 37 -26 15 33 -4 9 4 19 20 26 37 17 42 15 54 -19 12 -34 37 -30 26 5 -11
37 -14 66 -5 61 5 -3 52 17 106 44 l97 49 29 -29 c28 -27 58 -38 58 -21 0 4
-9 14 -21 22 -53 38 -59 47 -59 94 l0 46 40 0 c23 0 40 5 40 11 0 7 -10 9 -25
5 -14 -4 -25 -2 -25 4 0 5 -6 10 -14 10 -9 0 -16 12 -18 28 -3 27 -4 27 -75
27 -71 0 -83 8 -36 26 19 7 24 15 20 29 -3 11 -1 20 4 20 5 0 9 18 9 41 0 32
-3 40 -17 37 -17 -3 -47 -74 -39 -92 3 -6 8 0 12 13 7 23 8 23 14 6 8 -22 -9
-45 -26 -38 -7 2 -17 -12 -24 -33 l-12 -37 -20 46 c-16 37 -25 46 -42 43 -16
-3 -26 6 -44 43 -19 37 -22 40 -18 16 l6 -30 -16 28 c-21 38 -25 31 -11 -21 7
-27 17 -42 27 -42 9 0 19 -3 23 -6 10 -10 -4 -34 -21 -34 -14 0 -13 2 2 13 15
11 12 12 -23 9 -33 -3 -41 -1 -41 12 0 9 -5 16 -11 16 -5 0 -7 6 -4 13 4 6 0
4 -8 -5 -12 -15 -16 -16 -33 -3 -10 8 -34 15 -51 15 -18 0 -33 2 -33 5 0 2 11
15 25 29 30 30 32 59 5 86 -22 22 -51 26 -81 10 -14 -8 -19 -21 -19 -54 0 -42
1 -43 53 -69 70 -36 137 -58 137 -47 0 6 9 1 20 -10 11 -11 38 -23 59 -26 32
-5 42 -12 50 -36 8 -23 7 -30 -4 -34 -24 -9 -38 5 -23 24 11 13 11 14 -1 7
-11 -6 -13 -4 -8 8 3 10 2 17 -3 17 -6 0 -10 -15 -10 -34 0 -42 -9 -68 -21
-60 -5 3 -6 -2 -3 -10 3 -8 12 -12 20 -9 8 3 12 9 9 13 -3 4 3 10 13 13 9 2
25 8 35 12 9 4 17 3 17 -3 0 -6 -45 -32 -99 -60 -55 -27 -97 -43 -94 -36 5 14
-33 8 -54 -9 -9 -6 -13 -6 -13 1 0 6 -9 14 -21 17 -27 9 -19 15 27 21 45 6 58
14 22 14 -14 0 -28 7 -32 15 -3 8 -13 14 -23 14 -17 -1 -17 -2 0 -6 9 -2 14
-9 11 -15 -4 -5 -17 1 -33 16 -23 22 -30 24 -66 16 -59 -14 -63 -13 -57 15 4
21 1 25 -21 25 -29 0 -35 -12 -32 -63 1 -25 -2 -37 -12 -37 -13 0 -19 -94 -14
-202 2 -29 -2 -38 -14 -38 -12 0 -16 8 -15 33 3 58 1 67 -20 67 -11 0 -20 5
-20 10 0 6 -6 10 -13 10 -25 0 -37 21 -21 37 8 9 15 37 15 71 2 55 2 56 9 17
7 -38 7 -38 9 18 1 41 5 57 15 57 10 0 14 18 14 76 0 86 -15 89 -21 4 -3 -51
-3 -49 -5 18 -1 52 1 72 11 72 9 0 8 3 -2 9 -11 7 -11 9 0 14 10 4 9 6 -3 6
-13 1 -18 -7 -18 -26 0 -50 -10 -16 -18 58 -5 58 -11 74 -24 77 -11 2 -19 -5
-22 -20z m771 -100 c-3 -7 -5 -2 -5 12 0 14 2 19 5 13 2 -7 2 -19 0 -25z
m-710 -160 c-2 -24 -4 -7 -4 37 0 44 2 63 4 43 2 -21 2 -57 0 -80z m803 31 c0
-5 -7 -9 -15 -9 -8 0 -15 -7 -15 -15 0 -11 -11 -15 -40 -15 -29 0 -40 -4 -40
-15 0 -11 11 -15 40 -15 22 0 40 -3 41 -7 0 -5 3 -20 5 -35 3 -21 1 -28 -11
-28 -8 0 -15 5 -15 10 0 6 -7 10 -15 10 -14 0 -14 -3 0 -24 15 -22 14 -24 -9
-40 -32 -20 -43 -20 -54 0 -17 31 -33 11 -17 -20 12 -23 13 -26 1 -17 -8 7
-16 8 -18 3 -6 -15 -184 -101 -206 -99 -11 0 -18 5 -15 10 6 9 -15 37 -28 37
-5 0 -3 -16 5 -35 l15 -35 -43 -19 c-24 -10 -47 -24 -51 -31 -5 -8 -11 -6 -21
8 -8 12 -21 18 -32 15 -12 -3 -19 1 -19 11 0 8 3 13 7 11 4 -2 16 5 28 15 12
11 24 20 27 20 3 0 24 14 47 30 22 17 47 30 54 30 8 0 11 8 9 20 -2 11 0 18 5
15 10 -6 66 20 152 72 l58 34 -14 33 c-12 30 -12 34 7 45 19 12 20 11 14 -28
-4 -34 -2 -43 14 -51 21 -12 69 -3 69 12 0 5 -8 7 -19 3 -35 -11 -66 66 -36
90 16 13 135 16 135 4z m-1270 -29 c0 -5 -5 -10 -11 -10 -5 0 -7 5 -4 10 3 6
8 10 11 10 2 0 4 -4 4 -10z m-1 -35 c-1 -6 -17 -11 -37 -11 -21 -1 -30 1 -21
6 7 5 16 7 20 4 4 -2 11 0 14 6 8 13 27 9 24 -5z m-149 -47 c0 -4 -4 -8 -9 -8
-6 0 -12 4 -15 8 -3 5 1 9 9 9 8 0 15 -4 15 -9z m557 -85 c-3 -10 -5 -2 -5 17
0 19 2 27 5 18 2 -10 2 -26 0 -35z m443 17 c0 -5 8 -10 17 -10 15 0 14 -2 -3
-14 -16 -13 -20 -13 -27 0 -5 8 -14 11 -20 7 -7 -4 -6 0 2 10 15 19 31 22 31
7z m-74 -15 c14 -13 13 -16 -10 -24 -18 -7 -23 -15 -19 -30 4 -17 9 -19 24
-10 11 5 25 7 31 3 6 -4 -12 -19 -45 -36 -56 -28 -74 -43 -39 -32 9 3 6 -1 -8
-9 -14 -9 -24 -18 -22 -21 8 -21 -1 -27 -13 -9 -9 13 -22 20 -30 17 -9 -4 -15
0 -15 8 0 8 18 22 40 31 22 8 40 20 40 26 0 14 -13 14 -45 -1 -24 -11 -29 -9
-45 12 -15 19 -21 22 -33 12 -8 -7 -13 -23 -11 -37 1 -14 -2 -25 -7 -25 -15 0
-10 67 5 73 8 3 31 3 50 0 24 -4 36 -2 36 6 0 6 10 11 23 11 42 0 67 12 67 31
0 23 7 24 26 4z m-751 -42 c-1 -10 2 -26 7 -35 5 -12 5 -18 -2 -18 -5 0 -10 7
-10 15 0 8 -8 15 -17 16 -15 0 -15 2 2 9 11 5 16 9 12 9 -5 1 -5 6 -2 11 9 15
14 12 10 -7z m-250 -11 c-3 -3 -11 0 -18 7 -9 10 -8 11 6 5 10 -3 15 -9 12
-12z m658 -19 c-7 -2 -19 -2 -25 0 -7 3 -2 5 12 5 14 0 19 -2 13 -5z m37 -22
c0 -6 -4 -12 -8 -15 -5 -3 -9 1 -9 9 0 8 4 15 9 15 4 0 8 -4 8 -9z m-1 -53 c0
-13 -3 -18 -5 -12 -2 6 -18 8 -34 6 -17 -2 -30 0 -30 6 0 6 15 13 33 15 17 2
33 5 35 5 1 1 2 -8 1 -20z m-110 -10 c0 -16 -2 -18 -6 -8 -3 8 -11 18 -17 22
-7 5 -4 8 7 8 11 0 17 -7 16 -22z m151 -3 c0 -14 -2 -25 -4 -25 -2 0 -6 11 -8
25 -3 14 -1 25 3 25 5 0 9 -11 9 -25z m128 -15 c7 -12 18 -18 24 -14 6 4 8 3
4 -4 -3 -5 -1 -12 6 -14 7 -3 5 -7 -6 -11 -11 -5 -15 -3 -10 5 5 8 2 9 -12 4
-10 -5 -28 -11 -39 -13 l-20 -5 20 15 c23 19 17 21 -19 7 -23 -9 -26 -7 -26
15 0 36 57 47 78 15z m-197 -35 c2 -18 18 -46 43 -72 22 -24 37 -46 33 -50
-10 -9 -67 47 -68 66 -1 9 -5 3 -9 -14 -6 -23 -8 -14 -9 39 -1 70 4 87 10 31z
m-290 15 c5 0 9 -4 9 -10 0 -14 -13 -12 -36 6 -17 14 -17 15 -1 10 10 -3 23
-6 28 -6z m261 -64 c-2 -25 -7 -46 -12 -46 -4 0 -5 12 -2 26 3 19 1 25 -7 20
-6 -4 -9 -11 -7 -15 6 -9 -41 -56 -64 -64 -12 -4 -11 -6 3 -6 12 -1 17 -9 17
-31 0 -33 33 -70 62 -70 11 0 16 5 13 10 -3 6 -1 10 4 10 6 0 11 -4 11 -9 0
-5 11 -11 24 -13 17 -4 23 -1 19 9 -3 7 0 13 6 13 6 0 11 7 11 15 0 9 7 18 15
21 8 4 15 15 15 26 0 14 5 18 16 14 9 -3 20 -6 25 -6 21 0 8 -47 -16 -60 -14
-7 -25 -17 -25 -22 0 -11 18 -10 25 2 9 14 25 12 25 -3 0 -8 -15 -22 -34 -32
-31 -17 -33 -21 -24 -47 6 -15 14 -28 19 -28 5 0 9 -9 9 -20 0 -15 -7 -20 -27
-21 -16 0 -23 -3 -16 -5 7 -3 9 -13 6 -22 -6 -15 -5 -15 10 -4 14 12 19 12 32
-1 14 -15 8 -28 -15 -33 -3 0 -18 -6 -34 -13 -42 -17 -128 -16 -162 3 -16 8
-23 15 -17 16 17 0 53 32 53 46 0 7 -18 15 -40 19 -30 5 -40 11 -40 26 0 10
-7 19 -15 19 -8 0 -15 -7 -15 -15 0 -8 -7 -15 -16 -15 -9 0 -13 -5 -9 -12 4
-7 -1 -4 -10 7 -27 32 -45 81 -45 122 0 47 18 113 30 113 6 0 10 5 10 12 0 16
41 58 57 58 7 0 13 -7 13 -15 0 -8 6 -15 13 -16 6 -1 1 -4 -13 -8 -24 -6 -25
-11 -28 -84 -2 -58 0 -77 10 -77 16 1 48 24 48 35 0 4 -8 14 -17 21 -12 9 -14
13 -5 14 7 0 11 4 7 10 -3 5 -12 7 -20 3 -8 -3 -15 0 -15 6 0 6 10 11 23 11
18 0 19 2 7 10 -8 5 -10 10 -5 11 6 0 1 4 -10 9 -18 8 -18 9 5 9 34 1 110 78
110 111 0 15 3 20 8 13 4 -6 6 -32 4 -57z m353 34 c3 -5 1 -10 -4 -10 -6 0
-11 5 -11 10 0 6 2 10 4 10 3 0 8 -4 11 -10z m55 -50 c-5 -9 -19 -16 -32 -17
-22 -2 -22 -1 -4 12 11 9 16 20 12 30 -3 9 -3 22 0 27 11 17 33 -34 24 -52z
m-575 30 c-3 -5 -11 -10 -16 -10 -6 0 -7 5 -4 10 3 6 11 10 16 10 6 0 7 -4 4
-10z m-540 -18 c-3 -3 -11 0 -18 7 -9 10 -8 11 6 5 10 -3 15 -9 12 -12z m1425
9 c0 -10 -30 -24 -37 -17 -3 3 -2 9 2 15 8 13 35 15 35 2z m-450 -36 c16 8 33
15 37 15 4 -1 -9 -10 -30 -21 -32 -17 -40 -18 -52 -6 -8 8 -11 17 -8 21 4 3 1
6 -6 6 -7 0 -9 5 -5 11 4 8 12 2 21 -15 13 -25 15 -26 43 -11z m371 26 c-8 -5
-20 -7 -28 -4 -21 8 -15 13 15 13 20 0 23 -3 13 -9z m-447 -31 c14 -12 23 -26
21 -30 -3 -5 2 -21 10 -36 15 -29 20 -110 9 -150 -8 -30 -44 -20 -44 12 0 13
-4 24 -10 24 -6 0 -10 34 -10 81 0 80 0 81 -23 77 -22 -4 -23 -3 -14 23 12 32
27 32 61 -1z m475 1 c-6 -2 -16 2 -22 9 -9 10 -9 11 1 6 7 -4 12 -2 12 6 0 9
3 9 10 -2 6 -10 6 -16 -1 -19z m-29 -7 c0 -2 -9 0 -20 6 -11 6 -20 13 -20 16
0 2 9 0 20 -6 11 -6 20 -13 20 -16z m-330 -4 c-8 -5 -19 -10 -25 -10 -5 0 -3
5 5 10 8 5 20 10 25 10 6 0 3 -5 -5 -10z m-857 -30 c-3 -11 -9 -20 -14 -20
-11 0 -11 3 -3 24 9 23 23 20 17 -4z m567 5 c0 -8 9 -15 20 -15 16 0 20 -7 20
-35 0 -31 -3 -35 -27 -35 -25 0 -26 1 -8 14 19 14 14 53 -5 41 -5 -3 -10 0
-11 7 0 10 -2 10 -6 0 -2 -6 -9 -10 -14 -6 -5 3 -9 -4 -9 -15 0 -12 5 -21 10
-21 6 0 10 -4 10 -10 0 -5 -12 -10 -26 -10 -18 0 -23 4 -17 12 4 7 6 25 4 40
-2 22 1 27 13 22 12 -5 15 -2 10 10 -4 12 0 16 15 16 12 0 21 -6 21 -15z
m-292 -20 c5 -5 -38 -9 -70 -6 -9 1 -19 -3 -23 -9 -3 -5 -18 -9 -33 -9 l-27 1
30 8 c30 8 23 8 -102 10 -13 0 -23 4 -23 9 0 9 239 5 248 -4z m-59 -32 c-3
-30 1 -47 8 -39 4 4 8 17 8 29 0 28 44 38 46 10 1 -10 3 -36 5 -58 4 -57 -3
-75 -32 -75 -21 0 -24 5 -24 36 0 21 -4 33 -10 29 -5 -3 -10 -1 -10 4 0 6 -7
11 -15 11 -8 0 -15 -7 -15 -16 0 -22 -44 -14 -48 9 -2 11 5 20 20 26 l23 9
-25 10 -25 11 28 0 c21 1 27 -4 27 -19 0 -11 7 -20 15 -20 17 0 19 9 6 30 -11
15 -5 30 10 30 6 0 9 -8 8 -17z m-141 -28 c-3 -3 -9 2 -12 12 -6 14 -5 15 5 6
7 -7 10 -15 7 -18z m1008 6 c-3 -5 -15 -7 -26 -4 -28 7 -25 13 6 13 14 0 23
-4 20 -9z m-648 -33 c-6 -18 -28 -21 -28 -4 0 9 7 16 16 16 9 0 14 -5 12 -12z
m622 3 c0 -13 -24 -17 -81 -13 -27 2 -46 8 -43 13 7 12 124 12 124 0z m14 -33
c-3 -4 -9 -8 -15 -8 -5 0 -9 4 -9 8 0 5 7 9 15 9 8 0 12 -4 9 -9z m-980 -6 c3
-5 -1 -9 -9 -9 -8 0 -12 4 -9 9 3 4 7 8 9 8 2 0 6 -4 9 -8z m913 1 c-20 -2
-35 -8 -32 -14 4 -5 -3 -9 -15 -9 -12 0 -19 4 -16 9 4 5 0 12 -6 14 -7 3 14 5
47 5 40 -1 47 -3 22 -5z m-133 -25 c-6 -20 -5 -21 9 -9 13 10 29 11 80 2 79
-14 127 -14 127 -1 0 6 7 10 15 10 8 0 15 -4 15 -9 0 -5 8 -12 18 -14 9 -3
-33 -5 -95 -6 -72 -1 -114 3 -119 10 -4 8 -9 7 -15 -2 -7 -12 -9 -12 -9 0 0
11 -3 11 -15 1 -20 -16 -45 -5 -45 20 0 14 7 20 21 20 17 0 19 -4 13 -22z
m-696 -5 c-21 -2 -55 -2 -75 0 -21 2 -4 4 37 4 41 0 58 -2 38 -4z m895 0 c-7
-2 -21 -2 -30 0 -10 3 -4 5 12 5 17 0 24 -2 18 -5z m-793 -34 c0 -5 -12 -9
-27 -9 -16 0 -38 -3 -50 -6 -17 -5 -23 -2 -23 9 0 12 11 16 50 15 28 0 50 -4
50 -9z m24 -20 c-3 -6 2 -16 11 -23 34 -24 14 -48 -50 -62 -33 -7 -80 -20
-104 -28 -59 -22 -75 -19 -26 4 30 14 33 18 13 14 -35 -8 -38 13 -3 22 20 5
23 9 15 24 -16 30 -13 32 59 28 38 -2 69 -1 69 2 -2 24 4 40 12 35 6 -4 8 -11
4 -16z m526 -4 c0 -8 7 -15 15 -15 8 0 15 -4 15 -10 0 -5 -5 -10 -11 -10 -5 0
-8 -4 -5 -9 4 -5 0 -12 -6 -14 -10 -4 -10 -6 -1 -6 7 -1 17 8 23 19 12 22 55
29 47 8 -2 -7 -9 -12 -15 -11 -19 4 1 -39 22 -47 36 -15 1 -11 -44 5 -52 18
-63 19 -54 3 4 -7 -2 -5 -13 5 -12 10 -20 24 -19 30 3 24 17 36 32 30 14 -5
15 -3 5 15 -8 15 -8 22 -1 22 5 0 10 -7 10 -15z m-880 -34 c0 -11 -31 -24 -38
-16 -3 3 1 5 9 6 8 0 6 4 -6 9 -18 8 -17 9 8 9 15 1 27 -3 27 -8z m446 -56
c15 -11 16 -14 3 -15 -8 0 -24 7 -35 15 -15 11 -16 14 -3 15 8 0 24 -7 35 -15z
m350 0 c-11 -8 -27 -15 -35 -15 -13 1 -12 4 3 15 11 8 27 15 35 15 13 -1 12
-4 -3 -15z m360 -43 c9 -13 9 -22 0 -35 -11 -14 -18 -15 -52 -5 -49 15 -52 17
-34 28 10 7 11 10 3 10 -7 0 -13 5 -13 10 0 6 19 10 43 10 30 0 45 -5 53 -18z
m-632 -17 c3 -8 1 -15 -4 -15 -6 0 -10 7 -10 15 0 8 2 15 4 15 2 0 6 -7 10
-15z m176 0 c0 -8 -7 -15 -15 -15 -13 0 -14 3 -3 15 16 18 18 18 18 0z m-430
-9 c0 -11 -19 -15 -25 -6 -3 5 1 10 9 10 9 0 16 -2 16 -4z m-133 -207 c-14 -8
-22 -8 -30 0 -8 8 -3 11 19 11 25 -1 27 -2 11 -11z"/>
<path d="M762 1080 c0 -19 2 -27 5 -17 2 9 2 25 0 35 -3 9 -5 1 -5 -18z"/>
<path d="M862 1030 c0 -14 2 -19 5 -12 2 6 2 18 0 25 -3 6 -5 1 -5 -13z"/>
<path d="M886 985 c-3 -9 -6 -24 -5 -33 0 -9 5 -4 10 12 9 32 6 48 -5 21z"/>
<path d="M827 983 c15 -3 20 -9 17 -21 -5 -15 -4 -15 5 -2 17 24 13 30 -16 29
-23 -1 -24 -2 -6 -6z"/>
<path d="M986 975 c-11 -30 -6 -40 11 -22 12 12 14 20 6 28 -7 7 -12 6 -17 -6z"/>
<path d="M904 953 c4 -21 -4 -28 -26 -24 -13 2 -9 -9 8 -26 12 -12 20 -13 38
-5 14 6 28 7 37 1 18 -11 30 -11 49 1 24 16 -8 31 -51 24 -33 -6 -38 -4 -48
22 -8 20 -10 22 -7 7z"/>
<path d="M1010 945 c-7 -9 -8 -15 -2 -15 5 0 12 7 16 15 3 8 4 15 2 15 -2 0
-9 -7 -16 -15z"/>
<path d="M920 869 c0 -5 4 -8 9 -5 5 4 12 0 14 -6 4 -10 6 -10 6 -1 1 7 8 10
16 7 8 -4 15 -1 15 5 0 6 -13 11 -30 11 -16 0 -30 -5 -30 -11z"/>
<path d="M997 849 c7 -7 15 -10 18 -7 3 3 -2 9 -12 12 -14 6 -15 5 -6 -5z"/>
<path d="M633 1074 c0 -8 4 -14 8 -14 4 0 6 -10 4 -21 -3 -12 -1 -19 2 -15 14
13 13 54 0 59 -8 3 -14 -1 -14 -9z"/>
<path d="M585 830 c-19 -8 -19 -9 3 -9 12 -1 22 4 22 9 0 6 -1 10 -2 9 -2 0
-12 -4 -23 -9z"/>
<path d="M1185 871 c-3 -5 -2 -12 3 -15 5 -3 9 1 9 9 0 17 -3 19 -12 6z"/>
<path d="M1142 1890 c0 -14 2 -19 5 -12 2 6 2 18 0 25 -3 6 -5 1 -5 -13z"/>
<path d="M1425 1870 c1 -9 10 -14 25 -12 14 2 20 0 16 -7 -11 -17 10 -13 24 4
10 12 9 15 -4 15 -10 0 -15 4 -11 10 3 5 -7 8 -23 7 -20 -1 -29 -7 -27 -17z"/>
<path d="M406 1835 c-9 -26 -7 -32 5 -12 6 10 9 21 6 23 -2 3 -7 -2 -11 -11z"/>
<path d="M1433 1819 c-1 -12 4 -19 15 -18 11 0 12 2 4 6 -6 2 -10 9 -7 13 3 5
2 11 -3 14 -4 2 -9 -4 -9 -15z"/>
<path d="M1770 1828 c-1 -2 -2 -27 -4 -55 l-3 -53 33 0 c39 0 38 -1 20 60 -8
26 -20 46 -30 48 -9 2 -16 2 -16 0z"/>
<path d="M1825 1800 c6 -37 20 -58 32 -46 4 4 3 10 -3 14 -6 4 -16 21 -23 37
l-11 30 5 -35z"/>
<path d="M421 1803 c-1 -6 -4 -20 -7 -30 -5 -17 -5 -17 6 0 6 10 9 23 6 30 -3
9 -5 9 -5 0z"/>
<path d="M1230 1784 c0 -14 4 -23 9 -20 5 3 7 15 4 26 -7 28 -13 25 -13 -6z"/>
<path d="M380 1779 c-7 -11 -10 -23 -7 -25 2 -2 9 7 15 21 14 30 7 33 -8 4z"/>
<path d="M816 1785 c4 -8 1 -15 -5 -15 -19 0 -12 -39 10 -50 11 -7 23 -9 27
-6 3 3 0 6 -6 6 -7 0 -12 7 -12 15 0 8 6 15 13 15 8 0 7 4 -3 10 -12 8 -13 12
-2 19 11 6 10 10 -3 15 -23 9 -25 8 -19 -9z"/>
<path d="M896 1773 c7 -39 14 -42 14 -5 0 18 -4 32 -9 32 -5 0 -7 -12 -5 -27z"/>
<path d="M1075 1790 c-19 -8 -19 -9 2 -9 12 -1 25 4 28 9 7 12 -2 12 -30 0z"/>
<path d="M1055 1761 c2 -1 0 -13 -5 -25 -7 -19 -4 -22 19 -23 14 0 18 1 9 4
-20 5 -25 23 -6 23 6 0 21 -8 32 -17 21 -18 21 -18 3 4 -11 12 -17 25 -14 30
3 4 -5 8 -18 8 -13 0 -22 -2 -20 -4z"/>
<path d="M1110 1760 c0 -5 7 -10 16 -10 8 0 12 5 9 10 -3 6 -10 10 -16 10 -5
0 -9 -4 -9 -10z"/>
<path d="M349 1721 c-1 -6 -2 -16 -3 -22 0 -6 -9 -16 -19 -24 -16 -11 -16 -13
-2 -19 9 -3 14 -2 10 3 -3 5 7 18 21 28 23 17 24 20 10 32 -11 9 -16 10 -17 2z"/>
<path d="M1840 1721 c0 -5 7 -12 16 -15 24 -9 27 -7 10 9 -17 17 -26 19 -26 6z"/>
<path d="M548 1693 c6 -2 12 -11 12 -19 0 -8 4 -14 8 -14 4 0 8 9 8 20 0 14
-7 20 -21 19 -11 0 -14 -3 -7 -6z"/>
<path d="M871 1684 c0 -11 3 -14 6 -6 3 7 2 16 -1 19 -3 4 -6 -2 -5 -13z"/>
<path d="M1050 1688 c0 -12 7 -18 23 -17 15 0 17 2 7 6 -8 3 -18 11 -22 17 -5
7 -8 4 -8 -6z"/>
<path d="M1107 1686 c-6 -14 1 -26 14 -26 4 0 7 9 6 20 -1 23 -12 26 -20 6z"/>
<path d="M902 1660 c0 -19 2 -27 5 -17 2 9 2 25 0 35 -3 9 -5 1 -5 -18z"/>
<path d="M1400 1659 c0 -19 5 -29 15 -29 8 0 15 6 15 14 0 8 6 17 13 19 9 4 9
6 -1 6 -7 1 -11 5 -8 9 2 4 -4 9 -15 9 -15 1 -19 -5 -19 -28z"/>
<path d="M440 1670 c0 -6 7 -10 15 -10 8 0 15 2 15 4 0 2 -7 6 -15 10 -8 3
-15 1 -15 -4z"/>
<path d="M495 1670 c-3 -5 -1 -10 4 -10 6 0 11 5 11 10 0 6 -2 10 -4 10 -3 0
-8 -4 -11 -10z"/>
<path d="M619 1678 c-5 -17 -4 -48 3 -48 4 0 7 11 6 25 -2 21 -6 31 -9 23z"/>
<path d="M1180 1639 c0 -25 1 -25 76 -27 l75 -1 -3 26 c-3 25 -5 26 -75 27
-72 1 -73 1 -73 -25z"/>
<path d="M440 1630 c0 -11 4 -20 8 -20 4 0 8 9 8 20 0 11 -4 20 -8 20 -4 0 -8
-9 -8 -20z"/>
<path d="M873 1605 c0 -22 2 -30 4 -17 2 12 2 30 0 40 -3 9 -5 -1 -4 -23z"/>
<path d="M1059 1608 c-5 -55 -4 -80 3 -84 4 -3 8 18 8 45 0 28 -2 51 -5 51 -3
0 -5 -6 -6 -12z"/>
<path d="M1320 1590 c8 -5 24 -10 34 -10 26 0 18 6 -19 14 -22 5 -26 4 -15 -4z"/>
<path d="M1029 1528 c4 -28 6 -29 9 -9 2 13 0 27 -5 32 -6 6 -7 -3 -4 -23z"/>
<path d="M1442 1539 c-13 -5 -29 -6 -35 -3 -9 5 -9 4 -1 -5 9 -10 19 -9 45 3
37 16 29 21 -9 5z"/>
<path d="M871 1524 c0 -11 3 -14 6 -6 3 7 2 16 -1 19 -3 4 -6 -2 -5 -13z"/>
<path d="M245 1520 c3 -5 8 -10 11 -10 2 0 4 5 4 10 0 6 -5 10 -11 10 -5 0 -7
-4 -4 -10z"/>
<path d="M481 1515 c-22 -13 -23 -13 -3 -19 23 -8 72 2 72 14 0 4 -12 5 -26 2
-19 -3 -25 -1 -20 7 8 13 8 13 -23 -4z"/>
<path d="M236 1491 c-3 -5 1 -14 9 -21 10 -9 15 -9 15 -1 0 6 -5 11 -11 11 -5
0 -7 5 -4 10 3 6 4 10 1 10 -3 0 -7 -4 -10 -9z"/>
<path d="M221 1447 c-9 -12 -8 -16 3 -20 19 -7 32 11 19 24 -6 6 -14 5 -22 -4z"/>
<path d="M1000 1453 c0 -11 27 -30 43 -30 29 0 19 24 -13 29 -16 3 -30 3 -30
1z"/>
<path d="M335 1440 c11 -5 27 -9 35 -9 9 0 8 4 -5 9 -11 5 -27 9 -35 9 -9 0
-8 -4 5 -9z"/>
<path d="M206 1394 c-5 -13 -4 -14 7 -6 8 7 18 8 22 4 5 -4 5 -1 1 6 -10 17
-23 15 -30 -4z"/>
<path d="M1800 1391 c0 -5 -3 -17 -6 -25 -5 -12 -2 -15 10 -10 17 7 22 44 6
44 -5 0 -10 -4 -10 -9z"/>
<path d="M684 1379 c-3 -5 2 -6 11 -3 11 5 18 0 22 -15 7 -28 33 -27 33 2 0
18 -6 22 -30 23 -17 1 -33 -2 -36 -7z"/>
<path d="M280 1351 c0 -10 7 -21 15 -25 12 -4 13 -2 6 13 -6 10 -7 21 -4 25 3
3 1 6 -5 6 -7 0 -12 -9 -12 -19z"/>
<path d="M650 1350 c0 -5 5 -10 10 -10 6 0 10 5 10 10 0 6 -4 10 -10 10 -5 0
-10 -4 -10 -10z"/>
<path d="M778 1353 c7 -3 16 -2 19 1 4 3 -2 6 -13 5 -11 0 -14 -3 -6 -6z"/>
<path d="M785 1320 c3 -5 8 -10 11 -10 2 0 4 5 4 10 0 6 -5 10 -11 10 -5 0 -7
-4 -4 -10z"/>
<path d="M280 1301 c0 -5 7 -12 16 -15 14 -5 15 -4 4 9 -14 17 -20 19 -20 6z"/>
<path d="M215 1290 c-3 -6 1 -7 9 -4 18 7 21 14 7 14 -6 0 -13 -4 -16 -10z"/>
<path d="M260 1250 c20 -13 33 -13 25 0 -3 6 -14 10 -23 10 -15 0 -15 -2 -2
-10z"/>
<path d="M366 1233 c-6 -14 -5 -15 5 -6 7 7 10 15 7 18 -3 3 -9 -2 -12 -12z"/>
<path d="M1768 1093 c6 -2 18 -2 25 0 6 3 1 5 -13 5 -14 0 -19 -2 -12 -5z"/>
<path d="M120 1083 c0 -5 6 -17 13 -28 13 -17 14 -16 12 5 -1 22 -25 43 -25
23z"/>
<path d="M1762 1008 c2 -60 2 -61 5 -13 3 31 10 55 20 63 15 11 15 12 -5 12
-20 0 -22 -4 -20 -62z"/>
<path d="M1560 1016 c0 -2 16 -6 35 -8 19 -2 35 0 35 4 0 4 -16 8 -35 8 -19 0
-35 -2 -35 -4z"/>
<path d="M265 990 c-38 -25 -30 -25 21 0 21 10 32 19 24 20 -8 0 -28 -9 -45
-20z"/>
<path d="M125 980 c-3 -5 -1 -10 4 -10 6 0 11 5 11 10 0 6 -2 10 -4 10 -3 0
-8 -4 -11 -10z"/>
<path d="M1697 933 c-4 -3 -7 -11 -7 -17 0 -7 3 -7 8 0 4 7 16 14 27 17 19 5
19 5 -1 6 -11 0 -24 -2 -27 -6z"/>
<path d="M1768 933 c6 -2 18 -2 25 0 6 3 1 5 -13 5 -14 0 -19 -2 -12 -5z"/>
<path d="M210 841 c-8 -6 -17 -8 -21 -5 -4 2 -9 -5 -12 -15 -4 -16 0 -19 22
-17 18 2 27 10 29 25 4 24 3 24 -18 12z"/>
<path d="M1670 814 c0 -8 5 -14 11 -14 6 0 9 -7 5 -15 -3 -9 0 -15 8 -15 13 0
26 20 26 40 0 4 -11 10 -25 12 -17 4 -25 1 -25 -8z"/>
<path d="M1630 794 c0 -12 35 -64 42 -64 11 0 10 4 -3 34 -10 22 -39 44 -39
30z"/>
<path d="M200 775 c0 -8 5 -15 11 -15 13 0 42 -69 35 -86 -3 -8 -15 -14 -26
-14 -18 0 -19 -3 -10 -20 6 -11 15 -18 20 -15 6 3 7 -1 4 -9 -3 -8 2 -38 11
-65 9 -28 14 -55 10 -61 -3 -5 -1 -10 6 -10 7 0 9 -3 5 -7 -4 -4 -16 3 -27 17
l-20 25 12 -27 c7 -16 18 -28 25 -28 7 0 15 -6 18 -12 3 -7 3 -1 1 14 -4 28
16 44 38 32 7 -4 -4 9 -24 29 -29 27 -34 38 -25 47 8 10 8 11 -1 6 -20 -11
-20 53 -1 65 6 4 8 15 4 25 -5 19 5 47 18 45 28 -4 48 1 53 14 9 24 -1 27 -47
15 -52 -14 -64 -6 -19 14 l34 14 -37 -5 c-31 -5 -38 -2 -38 11 0 9 -7 16 -15
16 -8 0 -15 -7 -15 -15z"/>
<path d="M672 764 c-19 -13 -22 -24 -20 -56 7 -98 138 -101 138 -4 0 62 -67
96 -118 60z"/>
<path d="M1124 757 c-53 -46 -23 -127 47 -127 63 0 94 86 47 130 -29 26 -61
25 -94 -3z"/>
<path d="M200 745 c0 -14 31 -77 35 -73 6 5 -22 78 -30 78 -3 0 -5 -2 -5 -5z"/>
<path d="M596 701 c-4 -5 -3 -16 0 -24 8 -22 33 -10 27 14 -6 20 -18 25 -27
10z"/>
<path d="M895 685 c-30 -30 -32 -64 -4 -99 41 -52 129 -18 129 49 0 24 -7 39
-26 54 -35 28 -69 26 -99 -4z"/>
<path d="M1272 684 c4 -23 27 -31 24 -8 -2 10 -8 20 -15 22 -8 3 -12 -3 -9
-14z"/>
<path d="M1776 683 c-6 -14 -5 -15 5 -6 7 7 10 15 7 18 -3 3 -9 -2 -12 -12z"/>
<path d="M164 646 c4 -10 1 -25 -6 -33 -10 -12 -8 -12 15 -2 15 7 27 17 27 22
0 6 -3 7 -7 4 -3 -4 -12 1 -20 11 -14 16 -14 16 -9 -2z"/>
<path d="M1706 648 c5 -7 2 -9 -8 -5 -11 4 -18 -2 -22 -16 -5 -18 -8 -20 -16
-7 -8 13 -10 13 -10 1 0 -12 -3 -12 -12 -3 -14 14 -38 16 -38 3 0 -5 14 -14
31 -22 27 -11 33 -10 43 3 6 8 18 13 26 11 13 -4 13 -3 0 7 -13 10 -12 11 3 6
10 -3 21 -6 23 -6 3 0 2 -5 -1 -10 -3 -6 0 -17 9 -25 13 -13 15 -13 22 7 14
40 13 48 -6 58 -26 14 -53 13 -44 -2z m47 -28 c-3 -11 -9 -20 -13 -20 -5 0 -6
9 -3 20 3 11 9 20 13 20 5 0 6 -9 3 -20z"/>
<path d="M636 632 c-4 -4 -12 -8 -17 -8 -5 -1 -13 -2 -19 -3 -5 0 -10 -8 -10
-16 0 -8 -4 -15 -9 -15 -13 0 -51 -62 -44 -73 2 -4 15 3 28 17 32 35 70 42
111 23 42 -20 68 -69 61 -113 -4 -23 -1 -34 9 -38 10 -4 12 -2 8 6 -5 8 0 9
15 5 17 -4 21 -2 17 9 -3 9 1 14 12 15 13 0 12 3 -5 11 -13 6 -23 19 -23 30 0
10 -4 18 -8 18 -5 0 -9 7 -9 15 0 8 2 13 5 10 12 -12 42 17 38 38 -1 12 4 27
13 34 20 15 31 16 31 3 0 -5 -8 -10 -17 -11 -15 0 -15 -2 2 -8 l20 -8 -20 -5
c-16 -5 -17 -6 -2 -7 12 -1 17 -10 18 -33 1 -30 2 -29 10 11 9 48 -3 86 -26
78 -7 -3 -17 -1 -23 5 -8 8 -15 8 -24 1 -27 -21 -86 -23 -111 -3 -13 11 -28
16 -31 12z m14 -16 c0 -3 -4 -8 -10 -11 -5 -3 -10 -1 -10 4 0 6 5 11 10 11 6
0 10 -2 10 -4z m86 -51 c1 -8 -2 -13 -7 -9 -5 3 -9 12 -9 21 0 19 13 9 16 -12z"/>
<path d="M1545 630 c-3 -5 -1 -10 4 -10 6 0 11 5 11 10 0 6 -2 10 -4 10 -3 0
-8 -4 -11 -10z"/>
<path d="M1570 624 c0 -8 5 -12 10 -9 6 3 10 10 10 16 0 5 -4 9 -10 9 -5 0
-10 -7 -10 -16z"/>
<path d="M1065 620 c-11 -5 -14 -9 -7 -9 19 -1 14 -18 -8 -24 -28 -7 -25 -27
5 -27 16 0 25 6 25 15 0 8 5 15 10 15 6 0 10 -15 10 -34 0 -28 3 -34 18 -31
11 2 19 -3 19 -10 0 -8 -4 -12 -8 -9 -4 2 -9 -8 -11 -23 -2 -23 -8 -29 -35
-31 -19 -2 -33 1 -33 7 0 6 -6 11 -14 11 -17 0 -29 27 -16 35 20 12 9 21 -20
17 -16 -2 -30 0 -30 5 0 15 -33 12 -54 -6 -18 -14 -19 -14 -14 0 5 12 1 15
-18 11 -14 -2 -23 -10 -21 -16 3 -6 10 -10 16 -8 8 1 7 -4 -1 -18 -7 -11 -17
-20 -21 -20 -5 0 -15 -7 -23 -15 -9 -8 -11 -15 -5 -15 6 0 11 -8 12 -17 0 -14
2 -15 6 -3 10 27 35 49 68 60 27 9 41 8 72 -6 21 -9 42 -16 46 -15 5 1 6 -3 2
-9 -3 -5 -1 -18 4 -27 10 -17 10 -17 11 0 0 12 8 17 32 17 25 0 29 -3 20 -12
-17 -17 -15 -33 2 -19 11 9 20 9 34 2 18 -10 19 -7 15 32 -4 36 -1 48 22 75
46 55 135 50 166 -11 7 -12 17 -25 23 -29 7 -5 7 -8 1 -8 -6 0 -11 -9 -12 -20
-1 -11 2 -20 8 -20 5 0 9 6 9 13 0 8 3 8 9 -2 5 -8 7 -21 4 -28 -4 -11 -8 -12
-13 -3 -15 24 -28 -1 -29 -55 0 -30 4 -57 9 -60 6 -4 4 -15 -5 -28 -16 -24
-20 -41 -6 -33 4 3 16 -12 26 -34 10 -22 24 -40 32 -40 11 0 10 8 -7 35 -30
49 -15 65 22 23 16 -18 27 -28 24 -22 -3 7 1 15 10 18 8 3 13 10 10 15 -7 10
18 34 27 25 3 -3 11 -3 17 1 8 5 5 11 -7 21 -16 12 -15 13 17 14 19 1 29 4 22
7 -6 2 -10 8 -7 13 6 10 -15 8 -34 -4 -10 -6 -12 -5 -7 2 5 8 0 12 -13 12 -12
0 -21 7 -21 15 0 8 -3 14 -7 13 -5 -2 -9 1 -10 6 -1 5 -7 12 -13 16 -9 6 -9
13 -1 29 9 16 9 21 0 21 -7 0 -10 2 -7 5 3 3 17 1 32 -4 21 -9 26 -8 26 5 0 8
4 13 8 10 4 -2 8 4 8 14 0 10 -3 17 -7 15 -3 -3 -21 7 -39 20 -36 27 -24 32
29 14 28 -10 35 -21 34 -57 -1 -7 4 -11 10 -9 6 2 23 -9 37 -24 14 -16 33 -27
44 -25 19 3 38 34 29 49 -2 4 4 7 14 8 14 0 13 2 -6 10 -16 6 -28 6 -37 -2
-10 -8 -13 -6 -11 10 1 13 6 20 14 17 9 -4 8 2 -3 19 -21 32 -24 31 -20 -5 2
-17 0 -33 -5 -36 -5 -3 -9 0 -9 6 0 6 -5 8 -10 5 -6 -4 -27 12 -46 34 -31 34
-40 39 -56 30 -14 -7 -29 -7 -50 0 -17 6 -34 9 -36 6 -3 -3 -1 -5 5 -5 6 0 9
-9 6 -21 -6 -21 -7 -21 -20 -3 -7 10 -11 24 -9 30 3 7 -8 17 -23 24 -22 9 -27
16 -23 36 6 32 -4 31 -22 -3 -8 -16 -15 -22 -16 -15 0 7 -4 10 -10 7 -5 -3
-10 3 -10 14 0 12 5 21 12 21 6 0 9 3 5 6 -3 3 -15 0 -26 -8 -12 -8 -18 -17
-15 -20 10 -11 -71 4 -98 18 -15 8 -28 14 -30 13 -2 0 -12 -4 -23 -9z m2 -46
c-3 -3 -12 -4 -19 -1 -8 3 -5 6 6 6 11 1 17 -2 13 -5z m90 -26 c-3 -8 -6 -5
-6 6 -1 11 2 17 5 13 3 -3 4 -12 1 -19z m457 -133 c-4 -8 -10 -12 -15 -9 -14
8 -10 24 6 24 9 0 12 -6 9 -15z m-213 -24 c-8 -5 -10 -14 -6 -22 6 -11 5 -11
-5 -2 -11 10 -11 15 0 28 7 8 15 13 19 10 3 -3 -1 -10 -8 -14z m-31 -32 c0
-11 -4 -18 -10 -14 -5 3 -7 12 -3 20 7 21 13 19 13 -6z m16 -44 c-8 -8 -19
-15 -24 -15 -5 0 -9 7 -9 15 0 9 10 15 24 15 22 0 23 -2 9 -15z m72 -26 c15
-24 11 -32 -21 -35 -12 -2 -16 0 -10 2 9 4 10 11 3 23 -9 17 -5 31 9 31 4 0
12 -9 19 -21z m-43 -9 c3 -5 1 -10 -4 -10 -6 0 -11 5 -11 10 0 6 2 10 4 10 3
0 8 -4 11 -10z"/>
<path d="M525 596 c10 -14 19 -26 22 -26 7 0 -17 39 -28 46 -6 3 -3 -5 6 -20z"/>
<path d="M176 586 c3 -9 13 -16 22 -16 8 0 13 1 11 3 -2 1 -12 9 -22 16 -15
12 -17 12 -11 -3z"/>
<path d="M1606 582 c-3 -5 9 -9 27 -9 26 -1 28 1 12 7 -27 11 -33 12 -39 2z"/>
<path d="M1714 566 c-3 -8 -13 -12 -22 -9 -14 4 -14 3 -3 -5 8 -6 11 -17 8
-25 -4 -11 -1 -14 8 -10 8 3 12 9 9 14 -2 5 0 18 6 29 6 11 8 20 5 20 -3 0 -8
-6 -11 -14z"/>
<path d="M507 553 c3 -7 8 -13 12 -13 4 0 8 6 8 13 0 8 -6 14 -13 14 -7 0 -10
-6 -7 -14z"/>
<path d="M1415 550 c-4 -6 3 -10 14 -10 25 0 27 6 6 13 -8 4 -17 2 -20 -3z"/>
<path d="M1590 550 c-23 -7 -23 -8 -3 -9 12 -1 25 4 28 9 3 6 5 10 3 9 -2 -1
-14 -5 -28 -9z"/>
<path d="M1041 534 c0 -11 3 -14 6 -6 3 7 2 16 -1 19 -3 4 -6 -2 -5 -13z"/>
<path d="M597 529 c-46 -27 -41 -105 9 -128 35 -16 48 -14 78 10 70 55 -10
163 -87 118z"/>
<path d="M1675 529 c-4 -6 -5 -12 -2 -15 2 -3 7 2 10 11 7 17 1 20 -8 4z"/>
<path d="M1200 510 c-26 -26 -26 -81 0 -105 31 -28 79 -24 107 9 30 35 29 61
-2 91 -30 31 -77 33 -105 5z"/>
<path d="M1625 500 c3 -5 8 -10 11 -10 2 0 4 5 4 10 0 6 -5 10 -11 10 -5 0 -7
-4 -4 -10z"/>
<path d="M347 493 c-4 -3 -7 -14 -7 -24 0 -18 -29 -21 -43 -4 -5 6 -7 4 -4 -5
2 -8 10 -14 16 -12 8 1 8 -3 -1 -17 -7 -11 -16 -17 -20 -15 -4 3 -8 0 -8 -5 0
-6 3 -11 6 -11 14 0 74 33 74 41 0 5 7 9 15 9 8 0 15 -8 15 -18 0 -24 35 -46
47 -29 5 7 9 21 9 32 -1 15 -8 20 -31 20 -16 1 -29 5 -27 10 2 6 11 9 20 7 14
-3 13 -1 -3 12 -11 8 -22 10 -23 5 -3 -6 -9 -6 -16 0 -7 6 -16 8 -19 4z m93
-53 c0 -13 -11 -13 -30 0 -12 8 -11 10 8 10 12 0 22 -4 22 -10z"/>
<path d="M490 465 c0 -8 -6 -15 -14 -15 -9 0 -12 -7 -9 -20 3 -11 10 -17 15
-13 6 3 9 0 6 -8 -3 -8 -15 -20 -29 -26 -21 -11 -22 -13 -4 -13 16 0 17 -2 5
-9 -8 -6 -17 -8 -21 -5 -4 2 -5 -6 -1 -18 3 -14 1 -19 -6 -14 -6 3 -14 1 -18
-5 -5 -8 -9 -7 -15 2 -4 7 -4 18 1 24 6 7 -2 12 -24 13 -23 2 -36 -3 -40 -13
-4 -11 1 -15 17 -15 18 0 19 -2 7 -10 -12 -8 -9 -10 13 -10 15 0 27 -4 27 -10
0 -5 -4 -10 -10 -10 -5 0 -7 -7 -4 -15 6 -14 8 -13 19 1 6 9 17 14 23 10 7 -4
10 -2 6 7 -9 25 19 36 40 14 11 -11 13 -17 5 -15 -8 3 -25 -4 -38 -16 -13 -11
-21 -15 -16 -7 6 10 4 12 -5 6 -10 -6 -10 -11 3 -20 9 -7 14 -15 10 -18 -3 -4
-1 -7 6 -7 7 0 9 -4 6 -10 -12 -20 12 -10 35 15 12 13 27 22 31 19 14 -8 11
-17 -14 -44 -20 -21 -21 -28 -11 -38 7 -7 17 -11 21 -10 22 5 82 -15 76 -26
-4 -8 -3 -8 7 0 6 7 13 23 13 37 1 14 5 23 10 20 4 -2 7 0 7 6 0 6 7 7 17 4
10 -4 14 -2 9 5 -4 6 -21 8 -41 5 -25 -4 -35 -2 -35 8 0 7 -10 0 -22 -17 -35
-45 -53 -41 -26 5 12 22 26 37 30 35 5 -3 8 -1 8 5 0 5 -5 13 -10 16 -6 4 -8
11 -5 16 4 5 1 9 -5 9 -6 0 -8 5 -5 10 3 6 -1 10 -9 10 -9 0 -16 6 -16 14 0 8
-6 17 -12 19 -8 3 -6 6 5 6 11 1 17 9 17 24 0 17 2 19 10 7 5 -9 5 -19 -2 -27
-8 -10 -6 -13 5 -13 14 0 27 54 19 79 -5 15 -32 14 -32 -1 0 -7 -5 -5 -11 5
-8 14 -8 22 0 30 8 8 11 8 11 -1 0 -7 4 -12 9 -12 6 0 9 9 8 20 -2 24 -47 29
-47 5z m20 -75 c0 -5 -5 -10 -11 -10 -5 0 -7 5 -4 10 3 6 8 10 11 10 2 0 4 -4
4 -10z m-123 -55 c0 -12 -3 -12 -16 -3 -9 7 -18 14 -20 15 -2 2 5 3 16 3 11 0
20 -7 20 -15z m203 -165 c0 -5 -4 -10 -10 -10 -5 0 -10 5 -10 10 0 6 5 10 10
10 6 0 10 -4 10 -10z"/>
<path d="M890 438 c-57 -61 14 -152 89 -114 48 25 55 73 16 111 -31 32 -77 33
-105 3z"/>
<path d="M348 406 c-21 -19 -24 -25 -12 -30 9 -3 12 -2 9 5 -4 6 2 13 14 16
12 3 21 12 21 19 0 18 0 18 -32 -10z"/>
<path d="M1514 413 c5 -9 -1 -13 -18 -13 -14 0 -27 -3 -29 -7 -3 -5 10 -8 28
-8 31 0 40 14 20 32 -4 4 -5 2 -1 -4z"/>
<path d="M710 391 c0 -16 -71 -25 -113 -14 -36 10 -38 9 -35 -11 3 -20 9 -21
90 -21 47 0 90 3 94 8 4 4 -2 16 -14 27 -12 12 -22 16 -22 11z"/>
<path d="M1157 372 c-21 -23 -22 -33 -3 -26 9 4 14 -3 14 -20 0 -14 -7 -27
-14 -30 -19 -7 -18 -26 1 -26 8 0 15 5 15 12 0 17 17 -3 23 -27 4 -15 5 -13 6
8 0 15 6 27 12 27 7 0 9 -10 5 -25 -4 -14 -2 -25 4 -25 5 0 11 12 11 28 l1 27
7 -30 7 -30 5 32 c3 18 3 30 -1 28 -3 -2 -12 0 -20 6 -11 6 -8 9 12 9 26 0 28
-2 23 -35 -2 -19 0 -35 5 -35 6 0 11 12 11 28 l1 27 8 -30 c6 -23 8 -25 9 -8
0 12 6 25 11 28 6 3 10 13 10 21 0 12 -13 15 -70 13 -39 -1 -73 1 -77 4 -3 4
28 7 70 7 45 0 77 4 77 10 0 6 0 13 0 18 0 4 -29 7 -65 7 -42 0 -69 5 -74 13
-6 9 -12 8 -24 -6z"/>
<path d="M1436 361 c-4 -5 3 -7 14 -4 23 6 26 13 6 13 -8 0 -17 -4 -20 -9z"/>
<path d="M728 333 c7 -3 16 -2 19 1 4 3 -2 6 -13 5 -11 0 -14 -3 -6 -6z"/>
<path d="M565 317 c4 -8 15 -17 26 -20 22 -6 27 -52 7 -60 -7 -3 12 -5 42 -5
30 0 49 2 43 5 -18 7 -16 53 1 53 8 0 18 -4 21 -10 3 -5 14 -10 23 -10 13 0
14 2 4 9 -8 4 -13 11 -12 15 5 22 -14 29 -83 34 -67 4 -77 3 -72 -11z m95 -7
c0 -5 -6 -10 -14 -10 -8 0 -18 5 -21 10 -3 6 3 10 14 10 12 0 21 -4 21 -10z
m0 -45 c0 -18 -5 -25 -20 -25 -15 0 -20 7 -20 25 0 18 5 25 20 25 15 0 20 -7
20 -25z"/>
<path d="M630 265 c0 -8 5 -15 10 -15 6 0 10 7 10 15 0 8 -4 15 -10 15 -5 0
-10 -7 -10 -15z"/>
<path d="M843 275 c0 -33 2 -48 4 -32 2 15 8 25 13 22 4 -3 43 -6 85 -7 50 -1
82 -7 91 -16 12 -11 14 -7 14 31 0 27 5 47 13 50 7 3 5 6 -5 6 -17 1 -24 -20
-19 -56 1 -7 -2 -13 -7 -13 -5 0 -9 10 -8 23 1 17 -4 21 -19 18 -34 -6 -99 -5
-122 4 -18 6 -23 4 -24 -11 -1 -11 -5 -6 -9 11 -6 23 -8 17 -7 -30z"/>
<path d="M1108 313 c7 -3 16 -2 19 1 4 3 -2 6 -13 5 -11 0 -14 -3 -6 -6z"/>
<path d="M592 270 c0 -14 2 -19 5 -12 2 6 2 18 0 25 -3 6 -5 1 -5 -13z"/>
<path d="M685 269 c-4 -6 -5 -12 -2 -15 2 -3 7 2 10 11 7 17 1 20 -8 4z"/>
<path d="M888 242 c-34 -4 -35 -13 -4 -28 18 -9 25 -8 33 5 8 13 14 14 38 3
27 -13 65 -8 65 8 0 9 -88 17 -132 12z"/>
<path d="M1213 223 c15 -2 39 -2 55 0 15 2 2 4 -28 4 -30 0 -43 -2 -27 -4z"/>
<path d="M740 210 c-14 -3 -26 -14 -28 -23 -3 -12 1 -15 14 -10 14 5 16 2 12
-20 -4 -19 -1 -27 9 -27 8 0 11 5 8 10 -3 6 3 10 14 10 15 0 21 6 21 24 0 31
-19 44 -50 36z"/>
<path d="M1140 209 c0 -6 -8 -8 -19 -4 -14 4 -21 0 -26 -15 -5 -15 -15 -20
-41 -20 -19 0 -34 -4 -34 -9 0 -5 -6 -11 -12 -14 -7 -2 -1 -2 15 0 28 5 32 -2
27 -54 -1 -17 4 -23 19 -23 12 0 21 -5 21 -11 0 -7 12 -8 33 -4 36 8 57 22 57
39 0 6 -5 4 -11 -4 -8 -11 -9 -8 -4 15 6 27 5 28 -8 11 -12 -17 -14 -16 -13
18 1 43 23 49 32 9 13 -62 15 -64 37 -57 52 16 67 24 67 36 0 9 -3 9 -11 -2
-8 -11 -9 -8 -4 13 3 17 2 26 -4 23 -5 -3 -12 1 -15 10 -4 10 -13 13 -24 10
-13 -4 -25 2 -38 19 -19 25 -44 34 -44 14z m-12 -96 c-4 -52 -28 -56 -28 -4 0
30 4 41 16 41 11 0 14 -9 12 -37z"/>
<path d="M1230 199 c-12 -8 -9 -9 11 -5 23 5 27 2 38 -36 10 -31 15 -38 22
-27 6 10 9 11 9 1 0 -10 3 -10 14 0 16 15 1 29 -21 21 -7 -3 -13 0 -13 7 0 8
10 9 31 5 29 -7 31 -5 25 16 -7 24 -7 24 8 -1 17 -28 22 -19 6 10 -6 11 -17
17 -25 14 -8 -4 -12 -11 -8 -18 4 -7 2 -7 -8 1 -12 10 -18 10 -29 0 -8 -8 -11
-8 -7 -1 4 7 0 15 -9 18 -21 8 -26 7 -44 -5z"/>
<path d="M633 159 c-17 -47 -18 -45 19 -58 24 -9 34 -8 40 1 12 19 4 33 -20
36 -14 2 -22 12 -24 29 -3 26 -3 25 -15 -8z"/>
<path d="M840 167 c0 -18 -34 -57 -49 -57 -6 0 -11 -8 -10 -17 0 -11 3 -13 6
-5 7 18 33 15 34 -5 1 -12 4 -9 8 7 l7 25 7 -27 c7 -25 12 -28 47 -28 22 0 40
5 40 10 0 6 -9 10 -20 10 -11 0 -20 5 -20 10 0 7 -6 7 -19 1 -15 -9 -20 -7
-25 12 -11 43 -8 50 21 42 l28 -7 -24 21 c-28 25 -31 25 -31 8z"/>
<path d="M906 164 c-5 -12 11 -19 36 -15 4 0 4 -7 1 -16 -4 -11 -8 -13 -11 -5
-2 7 -8 12 -14 12 -6 0 -6 -6 2 -15 22 -27 47 -16 41 18 0 4 4 7 9 7 6 0 10 5
10 11 0 6 -6 9 -12 6 -7 -2 -23 -1 -35 4 -15 5 -23 4 -27 -7z"/>
<path d="M1015 130 c-16 -7 -17 -9 -3 -9 9 -1 20 4 23 9 7 11 7 11 -20 0z"/>
<path d="M860 120 c0 -5 7 -7 15 -4 8 4 15 8 15 10 0 2 -7 4 -15 4 -8 0 -15
-4 -15 -10z"/>
<path d="M724 109 c-9 -15 -2 -18 20 -9 17 6 18 7 3 13 -9 3 -19 2 -23 -4z"/>
<path d="M1032 90 c0 -14 2 -19 5 -12 2 6 2 18 0 25 -3 6 -5 1 -5 -13z"/>
</g>
</svg>
